  0
SECTION
  2
HEADER
  9
$ACADVER
  1
AC1015
  9
$ACADMAINTVER
 70
     6
  9
$DWGCODEPAGE
  3
ANSI_1252
  9
$INSBASE
 10
0.0
 20
0.0
 30
0.0
  9
$EXTMIN
 10
0.0
 20
0.0
 30
0.0
  9
$EXTMAX
 10
260.0
 20
150.0
 30
0.0
  9
$LIMMIN
 10
0.0
 20
0.0
  9
$LIMMAX
 10
420.0
 20
297.0
  9
$ORTHOMODE
 70
     0
  9
$REGENMODE
 70
     1
  9
$FILLMODE
 70
     1
  9
$QTEXTMODE
 70
     0
  9
$MIRRTEXT
 70
     1
  9
$LTSCALE
 40
1.0
  9
$ATTMODE
 70
     1
  9
$TEXTSIZE
 40
3.5
  9
$TRACEWID
 40
1.0
  9
$TEXTSTYLE
  7
Standard
  9
$CLAYER
  8
0
  9
$CELTYPE
  6
ByLayer
  9
$CECOLOR
 62
   256
  9
$CELTSCALE
 40
1.0
  9
$DISPSILH
 70
     0
  9
$DIMSCALE
 40
1.0
  9
$DIMASZ
 40
3.302
  9
$DIMEXO
 40
1.0
  9
$DIMDLI
 40
3.75
  9
$DIMRND
 40
0.0
  9
$DIMDLE
 40
0.0
  9
$DIMEXE
 40
1.0
  9
$DIMTP
 40
0.0
  9
$DIMTM
 40
0.0
  9
$DIMTXT
 40
3.5
  9
$DIMCEN
 40
2.5
  9
$DIMTSZ
 40
0.0
  9
$DIMTOL
 70
     0
  9
$DIMLIM
 70
     0
  9
$DIMTIH
 70
     1
  9
$DIMTOH
 70
     1
  9
$DIMSE1
 70
     0
  9
$DIMSE2
 70
     0
  9
$DIMTAD
 70
     1
  9
$DIMZIN
 70
     0
  9
$DIMBLK
  1

  9
$DIMASO
 70
     1
  9
$DIMSHO
 70
     1
  9
$DIMPOST
  1

  9
$DIMAPOST
  1

  9
$DIMALT
 70
     0
  9
$DIMALTD
 70
     3
  9
$DIMALTF
 40
0.0393700787
  9
$DIMLFAC
 40
1.0
  9
$DIMTOFL
 70
     1
  9
$DIMTVP
 40
0.0
  9
$DIMTIX
 70
     0
  9
$DIMSOXD
 70
     0
  9
$DIMSAH
 70
     0
  9
$DIMBLK1
  1

  9
$DIMBLK2
  1

  9
$DIMSTYLE
  2
ISO-25
  9
$DIMCLRD
 70
     0
  9
$DIMCLRE
 70
     0
  9
$DIMCLRT
 70
     0
  9
$DIMTFAC
 40
1.0
  9
$DIMGAP
 40
1.524
  9
$DIMJUST
 70
     0
  9
$DIMSD1
 70
     0
  9
$DIMSD2
 70
     0
  9
$DIMTOLJ
 70
     0
  9
$DIMTZIN
 70
     0
  9
$DIMALTZ
 70
     0
  9
$DIMALTTZ
 70
     0
  9
$DIMUPT
 70
     0
  9
$DIMDEC
 70
     2
  9
$DIMTDEC
 70
     2
  9
$DIMALTU
 70
     2
  9
$DIMALTTD
 70
     3
  9
$DIMTXSTY
  7
Standard
  9
$DIMAUNIT
 70
     0
  9
$DIMADEC
 70
     2
  9
$DIMALTRND
 40
0.0
  9
$DIMAZIN
 70
     0
  9
$DIMDSEP
 70
    44
  9
$DIMATFIT
 70
     3
  9
$DIMFRAC
 70
     0
  9
$DIMLDRBLK
  1

  9
$DIMLUNIT
 70
     2
  9
$DIMLWD
 70
    -2
  9
$DIMLWE
 70
    -2
  9
$DIMTMOVE
 70
     0
  9
$LUNITS
 70
     2
  9
$LUPREC
 70
     2
  9
$SKETCHINC
 40
1.0
  9
$FILLETRAD
 40
10.0
  9
$AUNITS
 70
     0
  9
$AUPREC
 70
     2
  9
$MENU
  1
.
  9
$ELEVATION
 40
0.0
  9
$PELEVATION
 40
0.0
  9
$THICKNESS
 40
0.0
  9
$LIMCHECK
 70
     0
  9
$CHAMFERA
 40
0.0
  9
$CHAMFERB
 40
0.0
  9
$CHAMFERC
 40
0.0
  9
$CHAMFERD
 40
0.0
  9
$SKPOLY
 70
     0
  9
$TDCREATE
 40
2458325.433500058
  9
$TDUCREATE
 40
2458325.641833391
  9
$TDUPDATE
 40
2458325.434024074
  9
$TDUUPDATE
 40
2458325.642357408
  9
$TDINDWG
 40
0.0000000116
  9
$TDUSRTIMER
 40
0.0000000116
  9
$USRTIMER
 70
     1
  9
$ANGBASE
 50
0.0
  9
$ANGDIR
 70
     0
  9
$PDMODE
 70
     0
  9
$PDSIZE
 40
-1.0
  9
$PLINEWID
 40
0.0
  9
$SPLFRAME
 70
     0
  9
$SPLINETYPE
 70
     6
  9
$SPLINESEGS
 70
     8
  9
$HANDSEED
  5
113
  9
$SURFTAB1
 70
     6
  9
$SURFTAB2
 70
     6
  9
$SURFTYPE
 70
     6
  9
$SURFU
 70
     6
  9
$SURFV
 70
     6
  9
$UCSBASE
  2

  9
$UCSNAME
  2

  9
$UCSORG
 10
0.0
 20
0.0
 30
0.0
  9
$UCSXDIR
 10
1.0
 20
0.0
 30
0.0
  9
$UCSYDIR
 10
0.0
 20
1.0
 30
0.0
  9
$UCSORTHOREF
  2

  9
$UCSORTHOVIEW
 70
     0
  9
$UCSORGTOP
 10
0.0
 20
0.0
 30
0.0
  9
$UCSORGBOTTOM
 10
0.0
 20
0.0
 30
0.0
  9
$UCSORGLEFT
 10
0.0
 20
0.0
 30
0.0
  9
$UCSORGRIGHT
 10
0.0
 20
0.0
 30
0.0
  9
$UCSORGFRONT
 10
0.0
 20
0.0
 30
0.0
  9
$UCSORGBACK
 10
0.0
 20
0.0
 30
0.0
  9
$PUCSBASE
  2

  9
$PUCSNAME
  2

  9
$PUCSORG
 10
0.0
 20
0.0
 30
0.0
  9
$PUCSXDIR
 10
1.0
 20
0.0
 30
0.0
  9
$PUCSYDIR
 10
0.0
 20
1.0
 30
0.0
  9
$PUCSORTHOREF
  2

  9
$PUCSORTHOVIEW
 70
     0
  9
$PUCSORGTOP
 10
0.0
 20
0.0
 30
0.0
  9
$PUCSORGBOTTOM
 10
0.0
 20
0.0
 30
0.0
  9
$PUCSORGLEFT
 10
0.0
 20
0.0
 30
0.0
  9
$PUCSORGRIGHT
 10
0.0
 20
0.0
 30
0.0
  9
$PUCSORGFRONT
 10
0.0
 20
0.0
 30
0.0
  9
$PUCSORGBACK
 10
0.0
 20
0.0
 30
0.0
  9
$USERI1
 70
     0
  9
$USERI2
 70
     0
  9
$USERI3
 70
     0
  9
$USERI4
 70
     0
  9
$USERI5
 70
     0
  9
$USERR1
 40
0.0
  9
$USERR2
 40
0.0
  9
$USERR3
 40
0.0
  9
$USERR4
 40
0.0
  9
$USERR5
 40
0.0
  9
$WORLDVIEW
 70
     1
  9
$SHADEDGE
 70
     3
  9
$SHADEDIF
 70
    70
  9
$TILEMODE
 70
     1
  9
$MAXACTVP
 70
    64
  9
$PINSBASE
 10
0.0
 20
0.0
 30
0.0
  9
$PLIMCHECK
 70
     0
  9
$PEXTMIN
 10
1.0000000000E+20
 20
1.0000000000E+20
 30
1.0000000000E+20
  9
$PEXTMAX
 10
-1.0000000000E+20
 20
-1.0000000000E+20
 30
-1.0000000000E+20
  9
$PLIMMIN
 10
0.0
 20
0.0
  9
$PLIMMAX
 10
420.0
 20
297.0
  9
$UNITMODE
 70
     0
  9
$VISRETAIN
 70
     1
  9
$PLINEGEN
 70
     0
  9
$PSLTSCALE
 70
     1
  9
$TREEDEPTH
 70
  3020
  9
$CMLSTYLE
  2
Standard
  9
$CMLJUST
 70
     0
  9
$CMLSCALE
 40
20.0
  9
$PROXYGRAPHICS
 70
     1
  9
$MEASUREMENT
 70
     1
  9
$CELWEIGHT
370
    -1
  9
$ENDCAPS
280
     0
  9
$JOINSTYLE
280
     0
  9
$LWDISPLAY
290
     1
  9
$INSUNITS
 70
     4
  9
$HYPERLINKBASE
  1

  9
$STYLESHEET
  1

  9
$XEDIT
290
     1
  9
$CEPSNTYPE
380
     0
  9
$PSTYLEMODE
290
     1
  9
$FINGERPRINTGUID
  2
{C6B6D34E-F896-4B67-A757-F7E433A46F61}
  9
$VERSIONGUID
  2
{FAEB1C32-E019-11D5-929B-00C0DF256EC4}
  9
$EXTNAMES
290
     1
  9
$PSVPSCALE
 40
0.0
  9
$OLESTARTUP
290
     0
  0
ENDSEC
  0
SECTION
  2
CLASSES
  0
CLASS
  1
ACDBDICTIONARYWDFLT
  2
AcDbDictionaryWithDefault
  3
ObjectDBX Classes
 90
        0
280
     0
281
     0
  0
CLASS
  1
VISUALSTYLE
  2
AcDbVisualStyle
  3
ObjectDBX Classes
 90
     4095
280
     0
281
     0
  0
CLASS
  1
MATERIAL
  2
AcDbMaterial
  3
ObjectDBX Classes
 90
     1153
280
     0
281
     0
  0
CLASS
  1
SCALE
  2
AcDbScale
  3
ObjectDBX Classes
 90
     1153
280
     0
281
     0
  0
CLASS
  1
TABLESTYLE
  2
AcDbTableStyle
  3
ObjectDBX Classes
 90
     4095
280
     0
281
     0
  0
CLASS
  1
MLEADERSTYLE
  2
AcDbMLeaderStyle
  3
ACDB_MLEADERSTYLE_CLASS
 90
     4095
280
     0
281
     0
  0
CLASS
  1
SUN
  2
AcDbSun
  3
SCENEOE
 90
     1153
280
     0
281
     0
  0
CLASS
  1
ACDBPLACEHOLDER
  2
AcDbPlaceHolder
  3
ObjectDBX Classes
 90
        0
280
     0
281
     0
  0
CLASS
  1
LAYOUT
  2
AcDbLayout
  3
ObjectDBX Classes
 90
        0
280
     0
281
     0
  0
ENDSEC
  0
SECTION
  2
TABLES
  0
TABLE
  2
VPORT
  5
8
330
0
100
AcDbSymbolTable
 70
     1
  0
VPORT
  5
29
330
8
100
AcDbSymbolTableRecord
100
AcDbViewportTableRecord
  2
*Active
 70
     0
 10
0.0
 20
0.0
 11
1.0
 21
1.0
 12
130.0
 22
75.0
 13
0.0
 23
0.0
 14
10.0
 24
10.0
 15
10.0
 25
10.0
 16
0.0
 26
0.0
 36
1.0
 17
0.0
 27
0.0
 37
0.0
 40
153.0
 41
1.7333333333
 42
50.0
 43
0.0
 44
0.0
 50
0.0
 51
0.0
 71
     0
 72
   100
 73
     1
 74
     3
 75
     0
 76
     0
 77
     0
 78
     0
281
     0
 65
     1
110
0.0
120
0.0
130
0.0
111
1.0
121
0.0
131
0.0
112
0.0
122
1.0
132
0.0
 79
     0
146
0.0
  0
ENDTAB
  0
TABLE
  2
LTYPE
  5
5
330
0
100
AcDbSymbolTable
 70
     6
  0
LTYPE
  5
14
330
5
100
AcDbSymbolTableRecord
100
AcDbLinetypeTableRecord
  2
ByBlock
 70
     0
  3

 72
    65
 73
     0
 40
0.0
  0
LTYPE
  5
15
330
5
100
AcDbSymbolTableRecord
100
AcDbLinetypeTableRecord
  2
ByLayer
 70
     0
  3

 72
    65
 73
     0
 40
0.0
  0
LTYPE
  5
16
330
5
100
AcDbSymbolTableRecord
100
AcDbLinetypeTableRecord
  2
Continuous
 70
     0
  3
Solid line
 72
    65
 73
     0
 40
0.0
  0
LTYPE
  5
6E
330
5
100
AcDbSymbolTableRecord
100
AcDbLinetypeTableRecord
  2
HIDDEN
 70
     0
  3
Hidden __ __ __ __ __ __ __ __ __ __ __ __ __ __
 72
    65
 73
     2
 40
1.905
 49
1.27
 74
     0
 49
-0.635
 74
     0
  0
LTYPE
  5
6F
330
5
100
AcDbSymbolTableRecord
100
AcDbLinetypeTableRecord
  2
PHANTOM
 70
     0
  3
Phantom ______  __  __  ______  __  __  ______
 72
    65
 73
     6
 40
12.7
 49
6.35
 74
     0
 49
-1.27
 74
     0
 49
1.27
 74
     0
 49
-1.27
 74
     0
 49
1.27
 74
     0
 49
-1.27
 74
     0
  0
LTYPE
  5
70
330
5
100
AcDbSymbolTableRecord
100
AcDbLinetypeTableRecord
  2
CENTER
 70
     0
  3
Center ____ _ ____ _ ____ _ ____ _ ____ _ ____
 72
    65
 73
     4
 40
10.16
 49
6.35
 74
     0
 49
-1.27
 74
     0
 49
1.27
 74
     0
 49
-1.27
 74
     0
  0
LTYPE
  5
71
330
5
100
AcDbSymbolTableRecord
100
AcDbLinetypeTableRecord
  2
CENTERX2
 70
     0
  3
Center (2x) ________  __  ________  __  _____
 72
    65
 73
     4
 40
20.32
 49
12.7
 74
     0
 49
-2.54
 74
     0
 49
2.54
 74
     0
 49
-2.54
 74
     0
  0
LTYPE
  5
72
330
5
100
AcDbSymbolTableRecord
100
AcDbLinetypeTableRecord
  2
DOT2
 70
     0
  3
Dot (.5x) ........................................
 72
    65
 73
     2
 40
0.635
 49
0.0
 74
     0
 49
-0.635
 74
     0
  0
ENDTAB
  0
TABLE
  2
LAYER
  5
2
330
0
100
AcDbSymbolTable
 70
     1
  0
LAYER
  5
10
330
2
100
AcDbSymbolTableRecord
100
AcDbLayerTableRecord
  2
0
 70
     0
 62
     7
  6
Continuous
370
    -3
390
F
  0
ENDTAB
  0
TABLE
  2
STYLE
  5
3
330
0
100
AcDbSymbolTable
 70
     1
  0
STYLE
  5
11
330
3
100
AcDbSymbolTableRecord
100
AcDbTextStyleTableRecord
  2
Standard
 70
     0
 40
0.0
 41
1.0
 50
0.0
 71
     0
 42
3.5
  3
txt
  4

  0
ENDTAB
  0
TABLE
  2
VIEW
  5
6
330
0
100
AcDbSymbolTable
 70
     0
  0
ENDTAB
  0
TABLE
  2
UCS
  5
7
330
0
100
AcDbSymbolTable
 70
     0
  0
ENDTAB
  0
TABLE
  2
APPID
  5
9
330
0
100
AcDbSymbolTable
 70
     1
  0
APPID
  5
12
330
9
100
AcDbSymbolTableRecord
100
AcDbRegAppTableRecord
  2
ACAD
 70
     0
  0
ENDTAB
  0
TABLE
  2
DIMSTYLE
  5
A
330
0
100
AcDbSymbolTable
 70
     1
100
AcDbDimStyleTable
  0
DIMSTYLE
105
27
330
A
100
AcDbSymbolTableRecord
100
AcDbDimStyleTableRecord
  2
ISO-25
 70
     0
 41
2.5
 42
0.625
 43
3.75
 44
1.25
 73
     0
 74
     0
 77
     1
 78
     8
140
2.5
141
2.5
143
0.0393700787
147
0.625
171
     3
172
     1
178
     0
271
     2
272
     2
274
     3
278
    44
283
     0
284
     8
340
11
  0
ENDTAB
  0
TABLE
  2
BLOCK_RECORD
  5
1
330
0
100
AcDbSymbolTable
 70
     1
  0
BLOCK_RECORD
  5
1F
330
1
100
AcDbSymbolTableRecord
100
AcDbBlockTableRecord
  2
*Model_Space
340
22
  0
BLOCK_RECORD
  5
1B
330
1
100
AcDbSymbolTableRecord
100
AcDbBlockTableRecord
  2
*Paper_Space
340
1E
  0
BLOCK_RECORD
  5
23
330
1
100
AcDbSymbolTableRecord
100
AcDbBlockTableRecord
  2
*Paper_Space0
340
26
  0
ENDTAB
  0
ENDSEC
  0
SECTION
  2
BLOCKS
  0
BLOCK
  5
20
330
1F
100
AcDbEntity
  8
0
100
AcDbBlockBegin
  2
*Model_Space
 70
     0
 10
0.0
 20
0.0
 30
0.0
  3
*Model_Space
  1

  0
ENDBLK
  5
21
330
1F
100
AcDbEntity
  8
0
100
AcDbBlockEnd
  0
BLOCK
  5
1C
330
1B
100
AcDbEntity
 67
     1
  8
0
100
AcDbBlockBegin
  2
*Paper_Space
 70
     0
 10
0.0
 20
0.0
 30
0.0
  3
*Paper_Space
  1

  0
ENDBLK
  5
1D
330
1B
100
AcDbEntity
 67
     1
  8
0
100
AcDbBlockEnd
  0
BLOCK
  5
24
330
23
100
AcDbEntity
  8
0
100
AcDbBlockBegin
  2
*Paper_Space0
 70
     0
 10
0.0
 20
0.0
 30
0.0
  3
*Paper_Space0
  1

  0
ENDBLK
  5
25
330
23
100
AcDbEntity
  8
0
100
AcDbBlockEnd
  0
ENDSEC
  0
SECTION
  2
ENTITIES
  0
CIRCLE
  5
73
330
1F
100
AcDbEntity
  8
0
  6
Continuous
 62
     7
100
AcDbCircle
 10
160.0
 20
40.0
 30
0.0
 40
2.999999999999991
  0
CIRCLE
  5
74
330
1F
100
AcDbEntity
  8
0
  6
Continuous
 62
     7
100
AcDbCircle
 10
80.0
 20
40.0
 30
0.0
 40
2.999999999999989
  0
CIRCLE
  5
75
330
1F
100
AcDbEntity
  8
0
  6
Continuous
 62
     7
100
AcDbCircle
 10
80.0
 20
80.0
 30
0.0
 40
2.999999999999993
  0
CIRCLE
  5
76
330
1F
100
AcDbEntity
  8
0
  6
Continuous
 62
     7
100
AcDbCircle
 10
160.0
 20
80.0
 30
0.0
 40
2.999999999999993
  0
LWPOLYLINE
  5
86
330
1F
100
AcDbEntity
  8
0
  6
Continuous
 62
     7
100
AcDbPolyline
 90
       16
 70
   128
 43
0.0
 10
55.0776422024
 20
55.4353006477
 10
55.0776471521
 20
56.0564778646
 10
55.0776471521
 20
56.0564778646
 10
58.2611803886
 20
56.0564778646
 10
58.2611803886
 20
56.0564778646
 10
58.2611803886
 20
55.4353006477
 10
58.2611803886
 20
55.4353006477
 10
56.9411788028
 20
55.4353006477
 10
56.9411788028
 20
55.4353006477
 10
56.9411788028
 20
50.0
 10
56.9411788028
 20
50.0
 10
56.397648738
 20
50.0
 10
56.397648738
 20
50.0
 10
56.397648738
 20
55.4353006477
 10
56.397648738
 20
55.4353006477
 10
55.0776471521
 20
55.4353006477
  0
LWPOLYLINE
  5
87
330
1F
100
AcDbEntity
  8
0
  6
Continuous
 62
     7
100
AcDbPolyline
 90
      100
 70
   128
 43
0.0
 10
62.6700520515
 20
51.397648738
 10
63.1529509716
 20
51.1440822569
 10
63.1529509716
 20
51.1440822569
 10
63.0340537699
 20
50.9414717193
 10
62.906663911
 20
50.7594862066
 10
62.7707813948
 20
50.5969124818
 10
62.6251929846
 20
50.4561770186
 10
62.4711119171
 20
50.3336401067
 10
62.3085381924
 20
50.2268752726
 10
62.1350453369
 20
50.1346692794
 10
61.9530598241
 20
50.0582353641
 10
61.7601551806
 20
49.9987867632
 10
61.5551181695
 20
49.9563234769
 10
61.337948791
 20
49.9308455052
 10
61.1086470449
 20
49.9223528479
 10
61.1086470449
 20
49.9223528479
 10
60.853867327
 20
49.9332719787
 10
60.6136464502
 20
49.966029371
 10
60.3879844144
 20
50.0206250248
 10
60.1756679828
 20
50.0970589401
 10
59.9791236291
 20
50.195331117
 10
59.7959248795
 20
50.3154415554
 10
59.6260717343
 20
50.4573902554
 10
59.4719906668
 20
50.6211772169
 10
59.3336816771
 20
50.7983097826
 10
59.2135712387
 20
50.9815085321
 10
59.1128725883
 20
51.1707734654
 10
59.0303724892
 20
51.3661045824
 10
58.9648577046
 20
51.5662886465
 10
58.9187547081
 20
51.7713256575
 10
58.8920634995
 20
51.9836420891
 10
58.8823576055
 20
52.2008114676
 10
58.8823576055
 20
52.2008114676
 10
58.8908502628
 20
52.4046352419
 10
58.913901761
 20
52.6036060692
 10
58.9539385739
 20
52.7965107127
 10
59.0097474644
 20
52.9845624092
 10
59.0813284328
 20
53.166547922
 10
59.1686814789
 20
53.342467251
 10
59.2730198396
 20
53.513533633
 10
59.3919170412
 20
53.6785338312
 10
59.3919170412
 20
53.6785338312
 10
59.5605569497
 20
53.8714384747
 10
59.7425424625
 20
54.0400783832
 10
59.9378735795
 20
54.1808138464
 10
60.1477635375
 20
54.2972845746
 10
60.3709990999
 20
54.3870640942
 10
60.6075802664
 20
54.4525788788
 10
60.8575070373
 20
54.4901892181
 10
61.1219926492
 20
54.5035348224
 10
61.1219926492
 20
54.5035348224
 10
61.3937576816
 20
54.4901892181
 10
61.6521771097
 20
54.4489391686
 10
61.8960376968
 20
54.3809979105
 10
62.1253394428
 20
54.2863654438
 10
62.3412955847
 20
54.1638285319
 10
62.5426928854
 20
54.0133871747
 10
62.730744582
 20
53.8362546089
 10
62.9042374375
 20
53.6324308346
 10
62.9042374375
 20
53.6324308346
 10
63.0158552186
 20
53.4734968202
 10
63.111700922
 20
53.3060701484
 10
63.1942010211
 20
53.1277243459
 10
63.2609290425
 20
52.9408858862
 10
63.3143114595
 20
52.7443415324
 10
63.3531350356
 20
52.5380912846
 10
63.3761865339
 20
52.3221351428
 10
63.3858924279
 20
52.096473107
 10
63.3858924279
 20
52.096473107
 10
59.4258876703
 20
52.096473107
 10
59.4258876703
 20
52.096473107
 10
59.436806801
 20
51.9217670147
 10
59.4610715361
 20
51.754340343
 10
59.4998951121
 20
51.5954063285
 10
59.5532775292
 20
51.4449649713
 10
59.6187923138
 20
51.3030162713
 10
59.6988659394
 20
51.1683469919
 10
59.793498406
 20
51.0421703697
 10
59.9014764769
 20
50.9232731681
 10
60.0203736786
 20
50.8165083339
 10
60.145337064
 20
50.723089104
 10
60.27757987
 20
50.6442287152
 10
60.4171020964
 20
50.5799271673
 10
60.5626905066
 20
50.5301844605
 10
60.7155583374
 20
50.4950005947
 10
60.8744923518
 20
50.4731623332
 10
61.0407057868
 20
50.4658829127
 10
61.0407057868
 20
50.4658829127
 10
61.2032795115
 20
50.4719490964
 10
61.362213526
 20
50.4913608844
 10
61.5199343037
 20
50.5241182767
 10
61.675228608
 20
50.5690080366
 10
61.8244567284
 20
50.6248169271
 10
61.9615524814
 20
50.6903317117
 10
62.0865158668
 20
50.7631259168
 10
62.2005601215
 20
50.8444127792
 10
62.3109646659
 20
50.9426849561
 10
62.4262221573
 20
51.0688615783
 10
62.5463325957
 20
51.2193029355
 10
62.6700827444
 20
51.397648738
  0
LWPOLYLINE
  5
88
330
1F
100
AcDbEntity
  8
0
  6
Continuous
 62
     7
100
AcDbPolyline
 90
       33
 70
   128
 43
0.0
 10
62.8423094749
 20
52.6400031717
 10
62.7780608153
 20
52.8547460768
 10
62.6992004264
 20
53.0464374836
 10
62.60820767
 20
53.2150773921
 10
62.5038693094
 20
53.3606658023
 10
62.3849721077
 20
53.4892688979
 10
62.246663118
 20
53.6045263894
 10
62.0913688138
 20
53.7064382765
 10
61.9178759583
 20
53.7950045594
 10
61.733463972
 20
53.8677987645
 10
61.542985802
 20
53.9187547081
 10
61.3488679217
 20
53.9502988636
 10
61.1498970945
 20
53.9600047576
 10
61.1498970945
 20
53.9600047576
 10
60.9873233697
 20
53.9539385739
 10
60.829602592
 20
53.9345267858
 10
60.677947998
 20
53.9017693935
 10
60.5335728246
 20
53.8568796337
 10
60.3928373614
 20
53.7974310329
 10
60.2593813187
 20
53.7270633013
 10
60.1319914598
 20
53.6421367287
 10
60.0094545478
 20
53.5450777885
 10
60.0094545478
 20
53.5450777885
 10
59.9245279752
 20
53.4650041629
 10
59.8456675864
 20
53.3752246433
 10
59.7716601445
 20
53.2769524664
 10
59.7037188864
 20
53.1689743955
 10
59.6406305753
 20
53.0500771938
 10
59.5823952112
 20
52.9226873349
 10
59.5302260309
 20
52.7868048187
 10
59.4829097976
 20
52.6400031717
 10
59.4829097976
 20
52.6400031717
 10
62.8423623631
 20
52.6400031717
  0
LWPOLYLINE
  5
89
330
1F
100
AcDbEntity
  8
0
  6
Continuous
 62
     7
100
AcDbPolyline
 90
      143
 70
   128
 43
0.0
 10
64.4729137421
 20
54.4258876703
 10
65.0164826222
 20
54.4258876703
 10
65.0164826222
 20
54.4258876703
 10
65.0164826222
 20
53.6566955697
 10
65.0164826222
 20
53.6566955697
 10
65.1669239794
 20
53.855666397
 10
65.3197918101
 20
54.0255195422
 10
65.4738728776
 20
54.1662550054
 10
65.6303804186
 20
54.2790860233
 10
65.6303804186
 20
54.2790860233
 10
65.8499762706
 20
54.3773582002
 10
66.0756383064
 20
54.4477259318
 10
66.3061532893
 20
54.4889759814
 10
66.5427344559
 20
54.5035348224
 10
66.5427344559
 20
54.5035348224
 10
66.7028817071
 20
54.4950421651
 10
66.8581760113
 20
54.4719906668
 10
67.0098306053
 20
54.431953854
 10
67.1566322522
 20
54.3761449635
 10
67.2961544787
 20
54.3069904686
 10
67.4211178641
 20
54.2281300797
 10
67.533948882
 20
54.1383505601
 10
67.6322210589
 20
54.0376519097
 10
67.7207873418
 20
53.9211811816
 10
67.8045006776
 20
53.7816589551
 10
67.880934593
 20
53.6202984671
 10
67.9513023246
 20
53.4346732441
 10
67.9513023246
 20
53.4346732441
 10
68.0240965297
 20
53.562063103
 10
68.1017436818
 20
53.6809603047
 10
68.1842437809
 20
53.7925780859
 10
68.2703835903
 20
53.8957032098
 10
68.3613763467
 20
53.9915489132
 10
68.4560088133
 20
54.0789019593
 10
68.555494227
 20
54.1589755849
 10
68.6598325876
 20
54.2305565532
 10
68.8757887294
 20
54.3494537549
 10
69.1014507652
 20
54.4355935643
 10
69.3331789848
 20
54.4865495079
 10
69.5746130984
 20
54.5035348224
 10
69.5746130984
 20
54.5035348224
 10
69.796635424
 20
54.4889759814
 10
70.0053121453
 20
54.4465126951
 10
70.2006432623
 20
54.3737184899
 10
70.3826287751
 20
54.2730198396
 10
70.5464157365
 20
54.1468432174
 10
70.6883644365
 20
53.9976150969
 10
70.8072616382
 20
53.8265487149
 10
70.9031073415
 20
53.6312175979
 10
70.9431441543
 20
53.5220262902
 10
70.9771147834
 20
53.3994893783
 10
71.0062324654
 20
53.2648200989
 10
71.0304972005
 20
53.1168052152
 10
71.0486957517
 20
52.9566579639
 10
71.062041356
 20
52.7831651084
 10
71.0705340133
 20
52.5963266487
 10
71.0729604868
 20
52.3973558214
 10
71.0729604868
 20
52.3973558214
 10
71.0729604868
 20
50.0
 10
71.0729604868
 20
50.0
 10
70.529430422
 20
50.0
 10
70.529430422
 20
50.0
 10
70.529430422
 20
52.3997822949
 10
70.529430422
 20
52.3997822949
 10
70.5282171853
 20
52.5696354401
 10
70.5233642382
 20
52.7261429811
 10
70.514871581
 20
52.8680916811
 10
70.5039524502
 20
52.9966947767
 10
70.4893936092
 20
53.1107390314
 10
70.4711950579
 20
53.2114376818
 10
70.4505700331
 20
53.2987907279
 10
70.4263052981
 20
53.371584933
 10
70.3656434605
 20
53.4977615552
 10
70.2867830717
 20
53.6118058099
 10
70.1897241315
 20
53.7112912235
 10
70.0744666401
 20
53.7986442696
 10
69.9446503077
 20
53.8690120012
 10
69.801488371
 20
53.9199679448
 10
69.6474073035
 20
53.9502988636
 10
69.4799806318
 20
53.9600047576
 10
69.4799806318
 20
53.9600047576
 10
69.2749436207
 20
53.9454459166
 10
69.0796125037
 20
53.89934292
 10
68.8915608072
 20
53.8241222414
 10
68.7132150047
 20
53.7173574073
 10
68.55064128
 20
53.5863278381
 10
68.4123322903
 20
53.4346732441
 10
68.2970747988
 20
53.2623936254
 10
68.2048688057
 20
53.0707022186
 10
68.1672584664
 20
52.9615109109
 10
68.1345010741
 20
52.8353342888
 10
68.1078098656
 20
52.6921723521
 10
68.0847583673
 20
52.5320251008
 10
68.0677730528
 20
52.3548925351
 10
68.0544274485
 20
52.1607746548
 10
68.047148028
 20
51.94967146
 10
68.0447215545
 20
51.7215829507
 10
68.0447215545
 20
51.7215829507
 10
68.0447215545
 20
50.0
 10
68.0447215545
 20
50.0
 10
67.5011914897
 20
50.0
 10
67.5011914897
 20
50.0
 10
67.5011914897
 20
52.2505541744
 10
67.5011914897
 20
52.2505541744
 10
67.499978253
 20
52.4410323445
 10
67.495125306
 20
52.6169516735
 10
67.4866326487
 20
52.7758856879
 10
67.4757135179
 20
52.9190476246
 10
67.4611546769
 20
53.0464374836
 10
67.4441693624
 20
53.156842028
 10
67.4235443376
 20
53.2526877314
 10
67.3992796026
 20
53.3315481202
 10
67.3398310017
 20
53.4674306364
 10
67.2609706129
 20
53.5887543116
 10
67.162698436
 20
53.6955191457
 10
67.0462277078
 20
53.7877251389
 10
66.9151981386
 20
53.8629458175
 10
66.7708229652
 20
53.9175414713
 10
66.615528661
 20
53.9490856268
 10
66.4481019892
 20
53.9600047576
 10
66.4481019892
 20
53.9600047576
 10
66.2515576354
 20
53.9454459166
 10
66.0610794654
 20
53.9005561568
 10
65.8766674792
 20
53.8265487149
 10
65.6995349134
 20
53.723423591
 10
65.5369611887
 20
53.5948204953
 10
65.3962257255
 20
53.4455923749
 10
65.2785417606
 20
53.2769524664
 10
65.1839092939
 20
53.0864742964
 10
65.1450857179
 20
52.9797094622
 10
65.1111150888
 20
52.8608122606
 10
65.0819974068
 20
52.7273562179
 10
65.0589459085
 20
52.5805545709
 10
65.0395341205
 20
52.4216205564
 10
65.027401753
 20
52.2481277009
 10
65.0189090957
 20
52.0625024779
 10
65.0164826222
 20
51.8623184139
 10
65.0164826222
 20
51.8623184139
 10
65.0164826222
 20
50.0
 10
65.0164826222
 20
50.0
 10
64.4729525574
 20
50.0
 10
64.4729525574
 20
50.0
 10
64.4729525574
 20
54.4258876703
  0
LWPOLYLINE
  5
8A
330
1F
100
AcDbEntity
  8
0
  6
Continuous
 62
     7
100
AcDbPolyline
 90
       62
 70
   128
 43
0.0
 10
72.3152756691
 20
54.4258876703
 10
72.8588449853
 20
54.4258876703
 10
72.8588449853
 20
54.4258876703
 10
72.8588449853
 20
53.6069528629
 10
72.8588449853
 20
53.6069528629
 10
73.0371907878
 20
53.8253354782
 10
73.2276689578
 20
54.0109607012
 10
73.4314927321
 20
54.1662550054
 10
73.6486621107
 20
54.2887919173
 10
73.8791770935
 20
54.3822111472
 10
74.1218244438
 20
54.4501524053
 10
74.3778173985
 20
54.4901892181
 10
74.6471559573
 20
54.5035348224
 10
74.6471559573
 20
54.5035348224
 10
74.8825238872
 20
54.4926156916
 10
75.1106123965
 20
54.4622847728
 10
75.3289950118
 20
54.4101155925
 10
75.5388849699
 20
54.3361081506
 10
75.7402822706
 20
54.2426889208
 10
75.9319736774
 20
54.1274314293
 10
76.1163856637
 20
53.9915489132
 10
76.2910917559
 20
53.8350413722
 10
76.4512390072
 20
53.6639749902
 10
76.5895479968
 20
53.4832027142
 10
76.7072319618
 20
53.2951510177
 10
76.8030776651
 20
53.0986066639
 10
76.8782983438
 20
52.8923564161
 10
76.9316807608
 20
52.6788267478
 10
76.9632249164
 20
52.4555911855
 10
76.9741440471
 20
52.2250762027
 10
76.9741440471
 20
52.2250762027
 10
76.9632249164
 20
51.9897082728
 10
76.9316807608
 20
51.7628330002
 10
76.8795115805
 20
51.5456636217
 10
76.8055041387
 20
51.3369869004
 10
76.7096584353
 20
51.1368028364
 10
76.5931877071
 20
50.9463246663
 10
76.4560919542
 20
50.7655523903
 10
76.2971579397
 20
50.5932727716
 10
76.1236650842
 20
50.4355519939
 10
75.9416795714
 20
50.2996694777
 10
75.7499881647
 20
50.1844119863
 10
75.5510173374
 20
50.0897795196
 10
75.3423406161
 20
50.0169853145
 10
75.1251712375
 20
49.9648161342
 10
74.898295965
 20
49.9332719787
 10
74.6641412719
 20
49.9223528479
 10
74.6641412719
 20
49.9223528479
 10
74.4008688967
 20
49.9356984522
 10
74.1473024156
 20
49.9781617385
 10
73.905868302
 20
50.0461029966
 10
73.6741400825
 20
50.1431619367
 10
73.4545442304
 20
50.2669120854
 10
73.2446542724
 20
50.4185666793
 10
73.0468966818
 20
50.5969124818
 10
72.8588449853
 20
50.8019494929
 10
72.8588449853
 20
50.8019494929
 10
72.8588449853
 20
48.3694098057
 10
72.8588449853
 20
48.3694098057
 10
72.3153149205
 20
48.3694098057
 10
72.3153149205
 20
48.3694098057
 10
72.3153149205
 20
54.4258876703
  0
LWPOLYLINE
  5
8B
330
1F
100
AcDbEntity
  8
0
  6
Continuous
 62
     7
100
AcDbPolyline
 90
       56
 70
   128
 43
0.0
 10
74.6423006058
 20
53.9600047576
 10
74.4578910241
 20
53.9527253371
 10
74.2807584583
 20
53.9284606021
 10
74.1109053131
 20
53.889637026
 10
73.9483315884
 20
53.8338281354
 10
73.7930372841
 20
53.7634604038
 10
73.6462356372
 20
53.6773205945
 10
73.505500174
 20
53.5741954706
 10
73.373257368
 20
53.4565115056
 10
73.2531469296
 20
53.3266951732
 10
73.148808569
 20
53.1895994203
 10
73.0602422861
 20
53.0440110101
 10
72.987448081
 20
52.8911431793
 10
72.9316391904
 20
52.7309959281
 10
72.8916023776
 20
52.5623560196
 10
72.8673376426
 20
52.3864366906
 10
72.8588449853
 20
52.2032379411
 10
72.8588449853
 20
52.2032379411
 10
72.8734038263
 20
51.9630170643
 10
72.9158671126
 20
51.7361417917
 10
72.987448081
 20
51.5201856499
 10
73.0881467314
 20
51.3175751124
 10
73.2155365903
 20
51.1319498894
 10
73.368404421
 20
50.9657364544
 10
73.5455369868
 20
50.8201480442
 10
73.7469342876
 20
50.6951846587
 10
73.9641036661
 20
50.5944860083
 10
74.1873392284
 20
50.52290504
 10
74.4154277378
 20
50.4804417537
 10
74.6507956676
 20
50.4658829127
 10
74.6507956676
 20
50.4658829127
 10
74.8813106504
 20
50.4804417537
 10
75.1045462127
 20
50.5241182767
 10
75.3217155913
 20
50.5956992451
 10
75.5303923126
 20
50.6976111322
 10
75.7257234296
 20
50.8250009912
 10
75.9004295219
 20
50.9754423484
 10
76.0532973526
 20
51.1489352039
 10
76.1855401585
 20
51.3454795577
 10
76.2923049927
 20
51.5565827525
 10
76.3699521448
 20
51.7725388943
 10
76.4148419046
 20
51.9933479831
 10
76.4306139824
 20
52.2190100189
 10
76.4306139824
 20
52.2190100189
 10
76.4160551414
 20
52.4458852915
 10
76.3699521448
 20
52.6666943803
 10
76.2947314662
 20
52.8826505221
 10
76.187966632
 20
53.0913272434
 10
76.0569370628
 20
53.2866583604
 10
75.9040692321
 20
53.4577247424
 10
75.7305763766
 20
53.6069528629
 10
75.5364584964
 20
53.7319162483
 10
75.3265685383
 20
53.8314016619
 10
75.108185923
 20
53.9029826303
 10
74.8800974137
 20
53.9454459166
 10
74.6423030103
 20
53.9600047576
  0
LWPOLYLINE
  5
8C
330
1F
100
AcDbEntity
  8
0
  6
Continuous
 62
     7
100
AcDbPolyline
 90
      100
 70
   128
 43
0.0
 10
81.6935896873
 20
51.397648738
 10
82.1765032385
 20
51.1440822569
 10
82.1765032385
 20
51.1440822569
 10
82.0576060368
 20
50.9414717193
 10
81.9302161779
 20
50.7594862066
 10
81.7943336617
 20
50.5969124818
 10
81.6487452515
 20
50.4561770186
 10
81.494664184
 20
50.3336401067
 10
81.3320904593
 20
50.2268752726
 10
81.1585976038
 20
50.1346692794
 10
80.9766120911
 20
50.0582353641
 10
80.7837074475
 20
49.9987867632
 10
80.5786704365
 20
49.9563234769
 10
80.3615010579
 20
49.9308455052
 10
80.1321993119
 20
49.9223528479
 10
80.1321993119
 20
49.9223528479
 10
79.877419594
 20
49.9332719787
 10
79.6371987172
 20
49.966029371
 10
79.4115366813
 20
50.0206250248
 10
79.1992202498
 20
50.0970589401
 10
79.002675896
 20
50.195331117
 10
78.8194771465
 20
50.3154415554
 10
78.6496240013
 20
50.4573902554
 10
78.4955429338
 20
50.6211772169
 10
78.3572339441
 20
50.7983097826
 10
78.2371235057
 20
50.9815085321
 10
78.1364248553
 20
51.1707734654
 10
78.0539247562
 20
51.3661045824
 10
77.9884099716
 20
51.5662886465
 10
77.942306975
 20
51.7713256575
 10
77.9156157665
 20
51.9836420891
 10
77.9059098725
 20
52.2008114676
 10
77.9059098725
 20
52.2008114676
 10
77.9144025297
 20
52.4046352419
 10
77.937454028
 20
52.6036060692
 10
77.9774908408
 20
52.7965107127
 10
78.0332997314
 20
52.9845624092
 10
78.1048806997
 20
53.166547922
 10
78.1922337459
 20
53.342467251
 10
78.2965721065
 20
53.513533633
 10
78.4154693082
 20
53.6785338312
 10
78.4154693082
 20
53.6785338312
 10
78.5841092167
 20
53.8714384747
 10
78.7660947294
 20
54.0400783832
 10
78.9614258465
 20
54.1808138464
 10
79.1713158045
 20
54.2972845746
 10
79.3945513668
 20
54.3870640942
 10
79.6311325334
 20
54.4525788788
 10
79.8810593043
 20
54.4901892181
 10
80.1455449161
 20
54.5035348224
 10
80.1455449161
 20
54.5035348224
 10
80.4173099485
 20
54.4901892181
 10
80.6757293766
 20
54.4489391686
 10
80.9195899637
 20
54.3809979105
 10
81.1488917098
 20
54.2863654438
 10
81.3648478516
 20
54.1638285319
 10
81.5662451524
 20
54.0133871747
 10
81.7542968489
 20
53.8362546089
 10
81.9277897044
 20
53.6324308346
 10
81.9277897044
 20
53.6324308346
 10
82.0394074856
 20
53.4734968202
 10
82.135253189
 20
53.3060701484
 10
82.2177532881
 20
53.1277243459
 10
82.2844813094
 20
52.9408858862
 10
82.3378637265
 20
52.7443415324
 10
82.3766873025
 20
52.5380912846
 10
82.3997388008
 20
52.3221351428
 10
82.4094446948
 20
52.096473107
 10
82.4094446948
 20
52.096473107
 10
78.4494399372
 20
52.096473107
 10
78.4494399372
 20
52.096473107
 10
78.460359068
 20
51.9217670147
 10
78.484623803
 20
51.754340343
 10
78.5234473791
 20
51.5954063285
 10
78.5768297962
 20
51.4449649713
 10
78.6423445808
 20
51.3030162713
 10
78.7224182064
 20
51.1683469919
 10
78.817050673
 20
51.0421703697
 10
78.9250287439
 20
50.9232731681
 10
79.0439259456
 20
50.8165083339
 10
79.168889331
 20
50.723089104
 10
79.3011321369
 20
50.6442287152
 10
79.4406543634
 20
50.5799271673
 10
79.5862427736
 20
50.5301844605
 10
79.7391106043
 20
50.4950005947
 10
79.8980446188
 20
50.4731623332
 10
80.0642580538
 20
50.4658829127
 10
80.0642580538
 20
50.4658829127
 10
80.2268317785
 20
50.4719490964
 10
80.385765793
 20
50.4913608844
 10
80.5434865707
 20
50.5241182767
 10
80.6987808749
 20
50.5690080366
 10
80.8480089954
 20
50.6248169271
 10
80.9851047483
 20
50.6903317117
 10
81.1100681338
 20
50.7631259168
 10
81.2241123884
 20
50.8444127792
 10
81.3345169328
 20
50.9426849561
 10
81.4497744242
 20
51.0688615783
 10
81.5698848627
 20
51.2193029355
 10
81.6936350113
 20
51.397648738
  0
LWPOLYLINE
  5
8D
330
1F
100
AcDbEntity
  8
0
  6
Continuous
 62
     7
100
AcDbPolyline
 90
       33
 70
   128
 43
0.0
 10
81.8659067154
 20
52.6400031717
 10
81.8016130822
 20
52.8547460768
 10
81.7227526934
 20
53.0464374836
 10
81.631759937
 20
53.2150773921
 10
81.5274215763
 20
53.3606658023
 10
81.4085243747
 20
53.4892688979
 10
81.270215385
 20
53.6045263894
 10
81.1149210808
 20
53.7064382765
 10
80.9414282253
 20
53.7950045594
 10
80.757016239
 20
53.8677987645
 10
80.566538069
 20
53.9187547081
 10
80.3724201887
 20
53.9502988636
 10
80.1734493614
 20
53.9600047576
 10
80.1734493614
 20
53.9600047576
 10
80.0108756367
 20
53.9539385739
 10
79.853154859
 20
53.9345267858
 10
79.701500265
 20
53.9017693935
 10
79.5571250916
 20
53.8568796337
 10
79.4163896284
 20
53.7974310329
 10
79.2829335857
 20
53.7270633013
 10
79.1555437267
 20
53.6421367287
 10
79.0330068148
 20
53.5450777885
 10
79.0330068148
 20
53.5450777885
 10
78.9480802422
 20
53.4650041629
 10
78.8692198533
 20
53.3752246433
 10
78.7952124115
 20
53.2769524664
 10
78.7272711534
 20
53.1689743955
 10
78.6641828423
 20
53.0500771938
 10
78.6059474782
 20
52.9226873349
 10
78.5537782979
 20
52.7868048187
 10
78.5064620646
 20
52.6400031717
 10
78.5064620646
 20
52.6400031717
 10
81.8659146301
 20
52.6400031717
  0
LWPOLYLINE
  5
8E
330
1F
100
AcDbEntity
  8
0
  6
Continuous
 62
     7
100
AcDbPolyline
 90
       53
 70
   128
 43
0.0
 10
83.3411812782
 20
54.4258876703
 10
83.8847405849
 20
54.4258876703
 10
83.8847405849
 20
54.4258876703
 10
83.8847405849
 20
53.7743795346
 10
83.8847405849
 20
53.7743795346
 10
84.0084907336
 20
53.9539385739
 10
84.1358805925
 20
54.1068064046
 10
84.265696925
 20
54.23176979
 10
84.3991529677
 20
54.3312552036
 10
84.5362487206
 20
54.4064758822
 10
84.6769841838
 20
54.4610715361
 10
84.8189328838
 20
54.4926156916
 10
84.964521294
 20
54.5035348224
 10
84.964521294
 20
54.5035348224
 10
85.0773523119
 20
54.4938289284
 10
85.19382304
 20
54.4659244831
 10
85.3139334785
 20
54.4186082498
 10
85.4376836271
 20
54.3518802284
 10
85.4376836271
 20
54.3518802284
 10
85.1392273862
 20
53.8811443688
 10
85.1392273862
 20
53.8811443688
 10
85.0603669974
 20
53.9151149978
 10
84.9875727922
 20
53.9405929696
 10
84.9208447709
 20
53.9551518106
 10
84.8613961701
 20
53.9600047576
 10
84.8613961701
 20
53.9600047576
 10
84.7315798376
 20
53.9454459166
 10
84.602976742
 20
53.9017693935
 10
84.4780133565
 20
53.8289751884
 10
84.3542632079
 20
53.7270633013
 10
84.294814607
 20
53.6651882269
 10
84.2390057164
 20
53.5948204953
 10
84.1880497729
 20
53.5171733432
 10
84.1395203028
 20
53.4310335339
 10
84.094630543
 20
53.3364010672
 10
84.0533804934
 20
53.2344891801
 10
84.0157701541
 20
53.1240846357
 10
83.9817995251
 20
53.0064006708
 10
83.9817995251
 20
53.0064006708
 10
83.9587480268
 20
52.9008490734
 10
83.9393362388
 20
52.7710327409
 10
83.9223509242
 20
52.6169516735
 10
83.90900532
 20
52.438605871
 10
83.8980861892
 20
52.2372085702
 10
83.8908067687
 20
52.0115465344
 10
83.8859538217
 20
51.7616197635
 10
83.8847405849
 20
51.4874282576
 10
83.8847405849
 20
51.4874282576
 10
83.8847405849
 20
50.0
 10
83.8847405849
 20
50.0
 10
83.3412105202
 20
50.0
 10
83.3412105202
 20
50.0
 10
83.3412105202
 20
54.4258876703
  0
LWPOLYLINE
  5
8F
330
1F
100
AcDbEntity
  8
0
  6
Continuous
 62
     7
100
AcDbPolyline
 90
       62
 70
   128
 43
0.0
 10
90.4847383499
 20
54.4258876703
 10
90.4847485143
 20
50.0
 10
90.4847485143
 20
50.0
 10
89.9412184495
 20
50.0
 10
89.9412184495
 20
50.0
 10
89.9412184495
 20
50.7655523903
 10
89.9412184495
 20
50.7655523903
 10
89.753166753
 20
50.561728616
 10
89.5554091625
 20
50.3870225238
 10
89.3443059677
 20
50.2414341136
 10
89.1234968789
 20
50.1249633854
 10
88.8917686593
 20
50.0363971026
 10
88.6503345457
 20
49.9733087915
 10
88.3967680646
 20
49.9344852154
 10
88.1334956895
 20
49.9223528479
 10
88.1334956895
 20
49.9223528479
 10
87.8993409964
 20
49.9332719787
 10
87.6736789606
 20
49.9648161342
 10
87.456509582
 20
50.0169853145
 10
87.2478328607
 20
50.0897795196
 10
87.0488620334
 20
50.1844119863
 10
86.8571706266
 20
50.2996694777
 10
86.6751851139
 20
50.4355519939
 10
86.5016922584
 20
50.5932727716
 10
86.3427582439
 20
50.7655523903
 10
86.205662491
 20
50.9463246663
 10
86.0904049996
 20
51.1368028364
 10
85.9945592962
 20
51.3369869004
 10
85.9205518543
 20
51.5456636217
 10
85.868382674
 20
51.7628330002
 10
85.8368385185
 20
51.9897082728
 10
85.8259193877
 20
52.2250762027
 10
85.8259193877
 20
52.2250762027
 10
85.8368385185
 20
52.4555911855
 10
85.868382674
 20
52.6788267478
 10
85.9217650911
 20
52.8923564161
 10
85.9969857697
 20
53.0986066639
 10
86.0928314731
 20
53.2951510177
 10
86.2093022012
 20
53.4832027142
 10
86.3476111909
 20
53.6639749902
 10
86.5077584422
 20
53.8350413722
 10
86.6824645344
 20
53.9915489132
 10
86.8668765207
 20
54.1274314293
 10
87.0585679274
 20
54.2426889208
 10
87.2599652282
 20
54.3361081506
 10
87.4698551863
 20
54.4101155925
 10
87.6882378016
 20
54.4622847728
 10
87.9151130741
 20
54.4926156916
 10
88.150481004
 20
54.5035348224
 10
88.150481004
 20
54.5035348224
 10
88.4210327996
 20
54.4901892181
 10
88.678238991
 20
54.4501524053
 10
88.9220995781
 20
54.3822111472
 10
89.1526145609
 20
54.2887919173
 10
89.3697839395
 20
54.1662550054
 10
89.5748209505
 20
54.0109607012
 10
89.7640858838
 20
53.8253354782
 10
89.9412184495
 20
53.6069528629
 10
89.9412184495
 20
53.6069528629
 10
89.9412184495
 20
54.4258876703
 10
89.9412184495
 20
54.4258876703
 10
90.4847485143
 20
54.4258876703
  0
LWPOLYLINE
  5
90
330
1F
100
AcDbEntity
  8
0
  6
Continuous
 62
     7
100
AcDbPolyline
 90
       56
 70
   128
 43
0.0
 10
88.1577134132
 20
53.9600047576
 10
87.9199660212
 20
53.9454459166
 10
87.6918775118
 20
53.9029826303
 10
87.4734948965
 20
53.8314016619
 10
87.2636049385
 20
53.7319162483
 10
87.0694870582
 20
53.6069528629
 10
86.8959942027
 20
53.4577247424
 10
86.743126372
 20
53.2866583604
 10
86.610883566
 20
53.0913272434
 10
86.5053319686
 20
52.8826505221
 10
86.43011129
 20
52.6666943803
 10
86.3840082935
 20
52.4458852915
 10
86.3694494525
 20
52.2190100189
 10
86.3694494525
 20
52.2190100189
 10
86.3852215302
 20
51.9933479831
 10
86.43011129
 20
51.7725388943
 10
86.5065452054
 20
51.5565827525
 10
86.6133100396
 20
51.3454795577
 10
86.7467660822
 20
51.1489352039
 10
86.899633913
 20
50.9754423484
 10
87.0743400052
 20
50.8250009912
 10
87.2696711222
 20
50.6976111322
 10
87.4795610803
 20
50.5956992451
 10
87.6967304588
 20
50.5241182767
 10
87.9211792579
 20
50.4804417537
 10
88.1529074775
 20
50.4658829127
 10
88.1529074775
 20
50.4658829127
 10
88.3882754073
 20
50.4804417537
 10
88.6175771534
 20
50.52290504
 10
88.839599479
 20
50.5944860083
 10
89.0555556208
 20
50.6951846587
 10
89.2557396848
 20
50.8201480442
 10
89.4328722505
 20
50.9657364544
 10
89.5833136078
 20
51.1319498894
 10
89.7107034667
 20
51.3175751124
 10
89.8114021171
 20
51.5201856499
 10
89.8841963222
 20
51.7361417917
 10
89.9266596085
 20
51.9630170643
 10
89.9412184495
 20
52.2032379411
 10
89.9412184495
 20
52.2032379411
 10
89.9327257923
 20
52.3864366906
 10
89.9084610572
 20
52.5623560196
 10
89.8684242444
 20
52.7309959281
 10
89.8126153538
 20
52.8911431793
 10
89.7398211487
 20
53.0440110101
 10
89.6512548659
 20
53.1895994203
 10
89.5469165052
 20
53.3266951732
 10
89.42559283
 20
53.4565115056
 10
89.2933500241
 20
53.5741954706
 10
89.1538277977
 20
53.6773205945
 10
89.0058129139
 20
53.7634604038
 10
88.8517318465
 20
53.8338281354
 10
88.6891581217
 20
53.889637026
 10
88.5193049765
 20
53.9284606021
 10
88.3421724108
 20
53.9527253371
 10
88.1577604245
 20
53.9600047576
  0
LWPOLYLINE
  5
91
330
1F
100
AcDbEntity
  8
0
  6
Continuous
 62
     7
100
AcDbPolyline
 90
       24
 70
   128
 43
0.0
 10
92.2706127167
 20
56.2117721688
 10
92.8141630776
 20
56.2117721688
 10
92.8141630776
 20
56.2117721688
 10
92.8141630776
 20
54.4258876703
 10
92.8141630776
 20
54.4258876703
 10
93.5906345987
 20
54.4258876703
 10
93.5906345987
 20
54.4258876703
 10
93.5906345987
 20
53.8823576055
 10
93.5906345987
 20
53.8823576055
 10
92.8141630776
 20
53.8823576055
 10
92.8141630776
 20
53.8823576055
 10
92.8141630776
 20
50.0
 10
92.8141630776
 20
50.0
 10
92.2706330128
 20
50.0
 10
92.2706330128
 20
50.0
 10
92.2706330128
 20
53.8823576055
 10
92.2706330128
 20
53.8823576055
 10
91.4941614917
 20
53.8823576055
 10
91.4941614917
 20
53.8823576055
 10
91.4941614917
 20
54.4258876703
 10
91.4941614917
 20
54.4258876703
 10
92.2706330128
 20
54.4258876703
 10
92.2706330128
 20
54.4258876703
 10
92.2706330128
 20
56.2117721688
  0
LWPOLYLINE
  5
92
330
1F
100
AcDbEntity
  8
0
  6
Continuous
 62
     7
100
AcDbPolyline
 90
      102
 70
   128
 43
0.0
 10
94.4447517395
 20
54.4258876703
 10
94.9882833367
 20
54.4258876703
 10
94.9882833367
 20
54.4258876703
 10
94.9882833367
 20
52.3730910864
 10
94.9882833367
 20
52.3730910864
 10
94.9894965734
 20
52.1923188104
 10
94.9931362837
 20
52.0273186121
 10
95.0004157042
 20
51.8756640182
 10
95.0101215982
 20
51.7385682652
 10
95.0222539657
 20
51.61724459
 10
95.0368128067
 20
51.5092665191
 10
95.0537981213
 20
51.417060526
 10
95.074423146
 20
51.3382001371
 10
95.074423146
 20
51.3382001371
 10
95.1108202486
 20
51.2399279603
 10
95.1532835349
 20
51.1465087304
 10
95.2042394785
 20
51.0591556843
 10
95.2612616058
 20
50.9766555851
 10
95.3267763904
 20
50.899008433
 10
95.3995705955
 20
50.8274274647
 10
95.4784309844
 20
50.7606994433
 10
95.5657840305
 20
50.7000376057
 10
95.7562622005
 20
50.5981257186
 10
95.9649389218
 20
50.5241182767
 10
96.1906009576
 20
50.4804417537
 10
96.433248308
 20
50.4658829127
 10
96.433248308
 20
50.4658829127
 10
96.6758956583
 20
50.4804417537
 10
96.8991312206
 20
50.52290504
 10
97.1029549949
 20
50.5944860083
 10
97.2873669812
 20
50.693971422
 10
97.4487274692
 20
50.8165083339
 10
97.5833967486
 20
50.9584570339
 10
97.6913748195
 20
51.1173910483
 10
97.7714484451
 20
51.2945236141
 10
97.7714484451
 20
51.2945236141
 10
97.7920734699
 20
51.3673178192
 10
97.8102720212
 20
51.4570973388
 10
97.8260440989
 20
51.5650754097
 10
97.8393897032
 20
51.6912520319
 10
97.8490955972
 20
51.8356272054
 10
97.855161781
 20
51.9969876933
 10
97.860014728
 20
52.1765467326
 10
97.8612279647
 20
52.3730910864
 10
97.8612279647
 20
52.3730910864
 10
97.8612279647
 20
54.4258876703
 10
97.8612279647
 20
54.4258876703
 10
98.4047580295
 20
54.4258876703
 10
98.4047580295
 20
54.4258876703
 10
98.4047580295
 20
52.2711791992
 10
98.4047580295
 20
52.2711791992
 10
98.4011183193
 20
52.0515833472
 10
98.3914124252
 20
51.8453330994
 10
98.3744271107
 20
51.6524284558
 10
98.3501623757
 20
51.4752958901
 10
98.3198314569
 20
51.3102956919
 10
98.2822211176
 20
51.1610675714
 10
98.2373313578
 20
51.0251850552
 10
98.1863754142
 20
50.9026481433
 10
98.1281400501
 20
50.7910303621
 10
98.0638385023
 20
50.6854787647
 10
97.9910442972
 20
50.5859933511
 10
97.9133971451
 20
50.4925741212
 10
97.8272573357
 20
50.4052210751
 10
97.7350513426
 20
50.3251474495
 10
97.6355659289
 20
50.2499267709
 10
97.5288010948
 20
50.1819855128
 10
97.4159700769
 20
50.1213236752
 10
97.2958596384
 20
50.0679412581
 10
97.1684697795
 20
50.024264735
 10
97.0350137368
 20
49.9878676325
 10
96.8930650369
 20
49.9587499504
 10
96.7450501532
 20
49.9381249257
 10
96.5909690857
 20
49.9259925581
 10
96.428395361
 20
49.9223528479
 10
96.428395361
 20
49.9223528479
 10
96.267034873
 20
49.9259925581
 10
96.1117405688
 20
49.9381249257
 10
95.9637256851
 20
49.9587499504
 10
95.8217769851
 20
49.9878676325
 10
95.6871077057
 20
50.024264735
 10
95.5597178467
 20
50.0679412581
 10
95.4383941716
 20
50.1213236752
 10
95.3243499169
 20
50.1819855128
 10
95.2175850827
 20
50.2499267709
 10
95.1168864324
 20
50.3251474495
 10
95.0234672025
 20
50.4064343118
 10
94.9373273931
 20
50.4937873579
 10
94.8584670042
 20
50.5884198246
 10
94.7868860359
 20
50.689118475
 10
94.7213712513
 20
50.7958833091
 10
94.6631358872
 20
50.908714327
 10
94.6121799436
 20
51.0324644757
 10
94.5672901838
 20
51.1707734654
 10
94.5296798445
 20
51.3248545329
 10
94.4993489257
 20
51.4922812046
 10
94.4750841907
 20
51.6754799541
 10
94.4580988762
 20
51.8720243079
 10
94.4483929822
 20
52.0843407395
 10
94.4447532719
 20
52.311216012
 10
94.4447532719
 20
52.311216012
 10
94.4447532719
 20
54.4258876703
  0
LWPOLYLINE
  5
93
330
1F
100
AcDbEntity
  8
0
  6
Continuous
 62
     7
100
AcDbPolyline
 90
       53
 70
   128
 43
0.0
 10
99.4917750359
 20
54.4258876703
 10
100.0353482238
 20
54.4258876703
 10
100.0353482238
 20
54.4258876703
 10
100.0353482238
 20
53.7743795346
 10
100.0353482238
 20
53.7743795346
 10
100.1590983725
 20
53.9539385739
 10
100.2864882314
 20
54.1068064046
 10
100.4163045639
 20
54.23176979
 10
100.5497606066
 20
54.3312552036
 10
100.6868563595
 20
54.4064758822
 10
100.8275918227
 20
54.4610715361
 10
100.9695405226
 20
54.4926156916
 10
101.1151289329
 20
54.5035348224
 10
101.1151289329
 20
54.5035348224
 10
101.2279599508
 20
54.4938289284
 10
101.3444306789
 20
54.4659244831
 10
101.4645411174
 20
54.4186082498
 10
101.588291266
 20
54.3518802284
 10
101.588291266
 20
54.3518802284
 10
101.2898350251
 20
53.8811443688
 10
101.2898350251
 20
53.8811443688
 10
101.2109746362
 20
53.9151149978
 10
101.1381804311
 20
53.9405929696
 10
101.0714524098
 20
53.9551518106
 10
101.012003809
 20
53.9600047576
 10
101.012003809
 20
53.9600047576
 10
100.8821874765
 20
53.9454459166
 10
100.7535843808
 20
53.9017693935
 10
100.6286209954
 20
53.8289751884
 10
100.5048708467
 20
53.7270633013
 10
100.4454222459
 20
53.6651882269
 10
100.3896133553
 20
53.5948204953
 10
100.3386574118
 20
53.5171733432
 10
100.2901279417
 20
53.4310335339
 10
100.2452381819
 20
53.3364010672
 10
100.2039881323
 20
53.2344891801
 10
100.166377793
 20
53.1240846357
 10
100.132407164
 20
53.0064006708
 10
100.132407164
 20
53.0064006708
 10
100.1093556657
 20
52.9008490734
 10
100.0899438777
 20
52.7710327409
 10
100.0729585631
 20
52.6169516735
 10
100.0596129589
 20
52.438605871
 10
100.0486938281
 20
52.2372085702
 10
100.0414144076
 20
52.0115465344
 10
100.0365614606
 20
51.7616197635
 10
100.0353482238
 20
51.4874282576
 10
100.0353482238
 20
51.4874282576
 10
100.0353482238
 20
50.0
 10
100.0353482238
 20
50.0
 10
99.4918181591
 20
50.0
 10
99.4918181591
 20
50.0
 10
99.4918181591
 20
54.4258876703
  0
LWPOLYLINE
  5
94
330
1F
100
AcDbEntity
  8
0
  6
Continuous
 62
     7
100
AcDbPolyline
 90
      100
 70
   128
 43
0.0
 10
105.7642102242
 20
51.397648738
 10
106.2471203926
 20
51.1440822569
 10
106.2471203926
 20
51.1440822569
 10
106.128223191
 20
50.9414717193
 10
106.000833332
 20
50.7594862066
 10
105.8649508158
 20
50.5969124818
 10
105.7193624056
 20
50.4561770186
 10
105.5652813382
 20
50.3336401067
 10
105.4027076134
 20
50.2268752726
 10
105.2292147579
 20
50.1346692794
 10
105.0472292452
 20
50.0582353641
 10
104.8543246017
 20
49.9987867632
 10
104.6492875906
 20
49.9563234769
 10
104.4321182121
 20
49.9308455052
 10
104.202816466
 20
49.9223528479
 10
104.202816466
 20
49.9223528479
 10
103.9480367481
 20
49.9332719787
 10
103.7078158713
 20
49.966029371
 10
103.4821538355
 20
50.0206250248
 10
103.2698374039
 20
50.0970589401
 10
103.0732930501
 20
50.195331117
 10
102.8900943006
 20
50.3154415554
 10
102.7202411554
 20
50.4573902554
 10
102.5661600879
 20
50.6211772169
 10
102.4278510982
 20
50.7983097826
 10
102.3077406598
 20
50.9815085321
 10
102.2070420094
 20
51.1707734654
 10
102.1245419103
 20
51.3661045824
 10
102.0590271257
 20
51.5662886465
 10
102.0129241291
 20
51.7713256575
 10
101.9862329206
 20
51.9836420891
 10
101.9765270266
 20
52.2008114676
 10
101.9765270266
 20
52.2008114676
 10
101.9850196838
 20
52.4046352419
 10
102.0080711821
 20
52.6036060692
 10
102.0481079949
 20
52.7965107127
 10
102.1039168855
 20
52.9845624092
 10
102.1754978539
 20
53.166547922
 10
102.2628509
 20
53.342467251
 10
102.3671892606
 20
53.513533633
 10
102.4860864623
 20
53.6785338312
 10
102.4860864623
 20
53.6785338312
 10
102.6547263708
 20
53.8714384747
 10
102.8367118835
 20
54.0400783832
 10
103.0320430006
 20
54.1808138464
 10
103.2419329586
 20
54.2972845746
 10
103.4651685209
 20
54.3870640942
 10
103.7017496875
 20
54.4525788788
 10
103.9516764584
 20
54.4901892181
 10
104.2161620702
 20
54.5035348224
 10
104.2161620702
 20
54.5035348224
 10
104.4879271026
 20
54.4901892181
 10
104.7463465308
 20
54.4489391686
 10
104.9902071178
 20
54.3809979105
 10
105.2195088639
 20
54.2863654438
 10
105.4354650057
 20
54.1638285319
 10
105.6368623065
 20
54.0133871747
 10
105.824914003
 20
53.8362546089
 10
105.9984068585
 20
53.6324308346
 10
105.9984068585
 20
53.6324308346
 10
106.1100246397
 20
53.4734968202
 10
106.2058703431
 20
53.3060701484
 10
106.2883704422
 20
53.1277243459
 10
106.3550984635
 20
52.9408858862
 10
106.4084808806
 20
52.7443415324
 10
106.4473044567
 20
52.5380912846
 10
106.4703559549
 20
52.3221351428
 10
106.480061849
 20
52.096473107
 10
106.480061849
 20
52.096473107
 10
102.5200570913
 20
52.096473107
 10
102.5200570913
 20
52.096473107
 10
102.5309762221
 20
51.9217670147
 10
102.5552409571
 20
51.754340343
 10
102.5940645332
 20
51.5954063285
 10
102.6474469503
 20
51.4449649713
 10
102.7129617349
 20
51.3030162713
 10
102.7930353605
 20
51.1683469919
 10
102.8876678271
 20
51.0421703697
 10
102.995645898
 20
50.9232731681
 10
103.1145430997
 20
50.8165083339
 10
103.2395064851
 20
50.723089104
 10
103.3717492911
 20
50.6442287152
 10
103.5112715175
 20
50.5799271673
 10
103.6568599277
 20
50.5301844605
 10
103.8097277584
 20
50.4950005947
 10
103.9686617729
 20
50.4731623332
 10
104.1348752079
 20
50.4658829127
 10
104.1348752079
 20
50.4658829127
 10
104.2974489326
 20
50.4719490964
 10
104.4563829471
 20
50.4913608844
 10
104.6141037248
 20
50.5241182767
 10
104.769398029
 20
50.5690080366
 10
104.9186261495
 20
50.6248169271
 10
105.0557219024
 20
50.6903317117
 10
105.1806852879
 20
50.7631259168
 10
105.2947295425
 20
50.8444127792
 10
105.4051340869
 20
50.9426849561
 10
105.5203915783
 20
51.0688615783
 10
105.6405020168
 20
51.2193029355
 10
105.7642521654
 20
51.397648738
  0
LWPOLYLINE
  5
95
330
1F
100
AcDbEntity
  8
0
  6
Continuous
 62
     7
100
AcDbPolyline
 90
       33
 70
   128
 43
0.0
 10
105.9365272522
 20
52.6400031717
 10
105.8722302363
 20
52.8547460768
 10
105.7933698475
 20
53.0464374836
 10
105.7023770911
 20
53.2150773921
 10
105.5980387305
 20
53.3606658023
 10
105.4791415288
 20
53.4892688979
 10
105.3408325391
 20
53.6045263894
 10
105.1855382349
 20
53.7064382765
 10
105.0120453794
 20
53.7950045594
 10
104.8276333931
 20
53.8677987645
 10
104.6371552231
 20
53.9187547081
 10
104.4430373428
 20
53.9502988636
 10
104.2440665155
 20
53.9600047576
 10
104.2440665155
 20
53.9600047576
 10
104.0814927908
 20
53.9539385739
 10
103.9237720131
 20
53.9345267858
 10
103.7721174191
 20
53.9017693935
 10
103.6277422457
 20
53.8568796337
 10
103.4870067825
 20
53.7974310329
 10
103.3535507398
 20
53.7270633013
 10
103.2261608808
 20
53.6421367287
 10
103.1036239689
 20
53.5450777885
 10
103.1036239689
 20
53.5450777885
 10
103.0186973963
 20
53.4650041629
 10
102.9398370074
 20
53.3752246433
 10
102.8658295656
 20
53.2769524664
 10
102.7978883075
 20
53.1689743955
 10
102.7347999964
 20
53.0500771938
 10
102.6765646323
 20
52.9226873349
 10
102.624395452
 20
52.7868048187
 10
102.5770792187
 20
52.6400031717
 10
102.5770792187
 20
52.6400031717
 10
105.9365317842
 20
52.6400031717
  0
LWPOLYLINE
  5
96
330
1F
100
AcDbEntity
  8
0
  6
Continuous
 62
     7
100
AcDbPolyline
 90
      169
 70
   128
 43
0.0
 10
146.0652351379
 20
55.705078125
 10
145.5361111111
 20
55.2034722222
 10
145.5361111111
 20
55.2034722222
 10
145.2439670139
 20
55.4680555556
 10
144.9366644965
 20
55.6995659722
 10
144.6169596354
 20
55.8952473958
 10
144.2820963542
 20
56.0578559028
 10
143.9430989583
 20
56.1860134549
 10
143.6096137153
 20
56.2769639757
 10
143.2788845486
 20
56.3320855035
 10
142.9536675347
 20
56.35
 10
142.9536675347
 20
56.35
 10
142.7538519965
 20
56.3444878472
 10
142.5554144965
 20
56.3251953125
 10
142.3611111111
 20
56.2948784722
 10
142.1681857639
 20
56.2521592882
 10
141.9766384549
 20
56.1970377604
 10
141.7892252604
 20
56.1295138889
 10
141.6031901042
 20
56.0495876736
 10
141.4199110243
 20
55.9572591146
 10
141.2435221354
 20
55.8552842882
 10
141.0767795139
 20
55.7436631944
 10
140.9196831597
 20
55.6237738715
 10
140.7736111111
 20
55.4942382813
 10
140.6385633681
 20
55.3564344618
 10
140.5117838542
 20
55.2103624132
 10
140.3960286458
 20
55.0546440972
 10
140.2912977431
 20
54.8906575521
 10
140.1975911458
 20
54.7211588542
 10
140.1162868924
 20
54.5502821181
 10
140.0473849826
 20
54.3752712674
 10
139.9922634549
 20
54.1988823785
 10
139.9481662326
 20
54.0211154514
 10
139.9164713542
 20
53.8392144097
 10
139.8985568576
 20
53.6559353299
 10
139.8916666667
 20
53.4699001736
 10
139.8916666667
 20
53.4699001736
 10
139.8985568576
 20
53.2797309028
 10
139.9178493924
 20
53.0909396701
 10
139.9523003472
 20
52.9049045139
 10
139.9991536458
 20
52.721625434
 10
140.0584092882
 20
52.5397243924
 10
140.1314453125
 20
52.3605794271
 10
140.2182617188
 20
52.1841905382
 10
140.3188585069
 20
52.0105577257
 10
140.4304796007
 20
51.842437066
 10
140.553125
 20
51.6839626736
 10
140.6854166667
 20
51.5337565104
 10
140.8273546007
 20
51.3945746528
 10
140.9803168403
 20
51.2622829861
 10
141.1429253472
 20
51.141015625
 10
141.3165581597
 20
51.0280164931
 10
141.4998372396
 20
50.9246636285
 10
141.6900065104
 20
50.8323350694
 10
141.885687934
 20
50.751030816
 10
142.0855034722
 20
50.6835069444
 10
142.289453125
 20
50.6283854167
 10
142.4989149306
 20
50.5842881944
 10
142.7125108507
 20
50.5539713542
 10
142.9302408854
 20
50.5346788194
 10
143.1521050347
 20
50.5291666667
 10
143.1521050347
 20
50.5291666667
 10
143.4194444444
 20
50.538812934
 10
143.6757595486
 20
50.5663736979
 10
143.9224283854
 20
50.6118489583
 10
144.1580729167
 20
50.6766167535
 10
144.3826931424
 20
50.7592990451
 10
144.5976671007
 20
50.8598958333
 10
144.8016167535
 20
50.9797851563
 10
144.9959201389
 20
51.1175889757
 10
145.1750651042
 20
51.2705512153
 10
145.3349175347
 20
51.4345377604
 10
145.4754774306
 20
51.6095486111
 10
145.5967447917
 20
51.7942057292
 10
145.6987196181
 20
51.991265191
 10
145.7814019097
 20
52.1979709201
 10
145.8447916667
 20
52.4170789931
 10
145.8888888889
 20
52.6458333333
 10
145.8888888889
 20
52.6458333333
 10
143.5958333333
 20
52.6458333333
 10
143.5958333333
 20
52.6458333333
 10
143.5958333333
 20
53.3513888889
 10
143.5958333333
 20
53.3513888889
 10
146.50625
 20
53.3513888889
 10
146.50625
 20
53.3513888889
 10
146.4897135417
 20
52.9572699653
 10
146.4442382812
 20
52.5824435764
 10
146.3698242188
 20
52.2296657986
 10
146.2678493924
 20
51.8975585938
 10
146.1369357639
 20
51.5861219618
 10
145.9770833333
 20
51.2953559028
 10
145.7882921007
 20
51.0266384549
 10
145.5719401042
 20
50.7772135417
 10
145.3307834201
 20
50.5539713542
 10
145.0703342014
 20
50.3596679688
 10
144.7905924479
 20
50.1956814236
 10
144.4915581597
 20
50.0620117188
 10
144.1718532986
 20
49.957280816
 10
143.834233941
 20
49.8828667535
 10
143.4759440104
 20
49.8387695313
 10
143.0983615451
 20
49.8236111111
 10
143.0983615451
 20
49.8236111111
 10
142.8654730903
 20
49.8291232639
 10
142.6394748264
 20
49.844281684
 10
142.4203667535
 20
49.8690863715
 10
142.2067708333
 20
49.9049153646
 10
141.998687066
 20
49.950390625
 10
141.7974934896
 20
50.006890191
 10
141.601812066
 20
50.0730360243
 10
141.4116427951
 20
50.148828125
 10
141.2283637153
 20
50.2356445313
 10
141.0519748264
 20
50.3321072049
 10
140.8810980903
 20
50.4382161458
 10
140.7157335069
 20
50.5553493924
 10
140.5572591146
 20
50.6821289063
 10
140.404296875
 20
50.8199327257
 10
140.2582248264
 20
50.9673828125
 10
140.1176649306
 20
51.1244791667
 10
140.1176649306
 20
51.1244791667
 10
139.9206054688
 20
51.3794162326
 10
139.7483506944
 20
51.6453776042
 10
139.603656684
 20
51.9196072049
 10
139.4851453993
 20
52.2048611111
 10
139.3928168403
 20
52.4997612847
 10
139.3266710069
 20
52.8043077257
 10
139.2880859375
 20
53.118500434
 10
139.2743055556
 20
53.4423394097
 10
139.2743055556
 20
53.4423394097
 10
139.2811957465
 20
53.6848741319
 10
139.3046223958
 20
53.9232747396
 10
139.3418294271
 20
54.1575412326
 10
139.3941948785
 20
54.3862955729
 10
139.46171875
 20
54.6122938368
 10
139.5444010417
 20
54.8327799479
 10
139.6422417535
 20
55.0505099826
 10
139.7552408854
 20
55.2627278646
 10
139.8820203993
 20
55.4680555556
 10
140.0184461806
 20
55.6609809028
 10
140.1672743056
 20
55.8428819444
 10
140.3271267361
 20
56.0137586806
 10
140.4980034722
 20
56.1722330729
 10
140.6799045139
 20
56.3196831597
 10
140.8728298611
 20
56.456108941
 10
141.0767795139
 20
56.5801323785
 10
141.290375434
 20
56.6917534722
 10
141.5094835069
 20
56.7882161458
 10
141.736859809
 20
56.8695203993
 10
141.9711263021
 20
56.9370442708
 10
142.2109049479
 20
56.988031684
 10
142.4589518229
 20
57.0252387153
 10
142.7125108507
 20
57.0486653646
 10
142.9743381076
 20
57.0555555556
 10
142.9743381076
 20
57.0555555556
 10
143.1879340278
 20
57.0500434028
 10
143.3973958333
 20
57.0348849826
 10
143.6041015625
 20
57.0100802951
 10
143.8080512153
 20
56.9756293403
 10
144.0078667535
 20
56.9301540799
 10
144.2049262153
 20
56.8750325521
 10
144.3992296007
 20
56.8102647569
 10
144.5893988715
 20
56.7344726563
 10
144.7781901042
 20
56.64765625
 10
144.9656032986
 20
56.5498155382
 10
145.1516384549
 20
56.4395724826
 10
145.3362955729
 20
56.3169270833
 10
145.520952691
 20
56.1818793403
 10
145.7028537326
 20
56.0344292535
 10
145.8847547743
 20
55.8759548611
 10
146.0652777778
 20
55.705078125
  0
LWPOLYLINE
  5
97
330
1F
100
AcDbEntity
  8
0
  6
Continuous
 62
     7
100
AcDbPolyline
 90
       62
 70
   128
 43
0.0
 10
152.8562307358
 20
55.0270833333
 10
152.85625
 20
50.0
 10
152.85625
 20
50.0
 10
152.2388888889
 20
50.0
 10
152.2388888889
 20
50.0
 10
152.2388888889
 20
50.8695421007
 10
152.2388888889
 20
50.8695421007
 10
152.0252929688
 20
50.638031684
 10
151.8006727431
 20
50.439594184
 10
151.5608940972
 20
50.2742296007
 10
151.3100911458
 20
50.141937934
 10
151.0468858507
 20
50.0413411458
 10
150.77265625
 20
49.9696831597
 10
150.4846462674
 20
49.9255859375
 10
150.1856119792
 20
49.9118055556
 10
150.1856119792
 20
49.9118055556
 10
149.9196506076
 20
49.9242078993
 10
149.6633355035
 20
49.9600368924
 10
149.4166666667
 20
50.0192925347
 10
149.1796440972
 20
50.1019748264
 10
148.9536458333
 20
50.2094618056
 10
148.7359157986
 20
50.340375434
 10
148.5292100694
 20
50.4947157118
 10
148.3321506076
 20
50.6738606771
 10
148.1516276042
 20
50.8695421007
 10
147.9959092882
 20
51.0748697917
 10
147.8649956597
 20
51.2912217882
 10
147.7561306424
 20
51.5185980903
 10
147.6720703125
 20
51.7556206597
 10
147.6128146701
 20
52.0022894965
 10
147.5769856771
 20
52.2599826389
 10
147.5645833333
 20
52.5273220486
 10
147.5645833333
 20
52.5273220486
 10
147.5769856771
 20
52.7891493056
 10
147.6128146701
 20
53.0427083333
 10
147.6734483507
 20
53.2852430556
 10
147.7588867188
 20
53.5195095486
 10
147.8677517361
 20
53.7427517361
 10
148.0000434028
 20
53.9563476563
 10
148.1571397569
 20
54.1616753472
 10
148.3390407986
 20
54.3559787326
 10
148.5374782986
 20
54.5337456597
 10
148.7469401042
 20
54.6880859375
 10
148.9646701389
 20
54.818999566
 10
149.1934244792
 20
54.9251085069
 10
149.4318250868
 20
55.0091688368
 10
149.6798719618
 20
55.0684244792
 10
149.9375651042
 20
55.102875434
 10
150.2049045139
 20
55.1152777778
 10
150.2049045139
 20
55.1152777778
 10
150.5122070313
 20
55.1001193576
 10
150.8043511285
 20
55.0546440972
 10
151.0813368056
 20
54.9774739583
 10
151.3431640625
 20
54.8713650174
 10
151.5898328993
 20
54.7321831597
 10
151.8227213542
 20
54.5557942708
 10
152.0376953125
 20
54.3449544271
 10
152.2388888889
 20
54.0969075521
 10
152.2388888889
 20
54.0969075521
 10
152.2388888889
 20
55.0270833333
 10
152.2388888889
 20
55.0270833333
 10
152.85625
 20
55.0270833333
  0
LWPOLYLINE
  5
98
330
1F
100
AcDbEntity
  8
0
  6
Continuous
 62
     7
100
AcDbPolyline
 90
       56
 70
   128
 43
0.0
 10
150.2131223679
 20
54.4979166667
 10
149.9430772569
 20
54.4813802083
 10
149.6840060764
 20
54.4331488715
 10
149.4359592014
 20
54.3518446181
 10
149.1975585938
 20
54.2388454861
 10
148.9770724826
 20
54.0969075521
 10
148.7800130208
 20
53.9274088542
 10
148.6063802083
 20
53.7331054688
 10
148.4561740451
 20
53.5112413194
 10
148.3362847222
 20
53.27421875
 10
148.2508463542
 20
53.0289279514
 10
148.1984809028
 20
52.778125
 10
148.1819444444
 20
52.5204318576
 10
148.1819444444
 20
52.5204318576
 10
148.199858941
 20
52.2641167535
 10
148.2508463542
 20
52.0133138021
 10
148.3376627604
 20
51.7680230035
 10
148.4589301215
 20
51.5282443576
 10
148.6105143229
 20
51.3050021701
 10
148.7841471354
 20
51.1079427083
 10
148.9825846354
 20
50.9370659722
 10
149.2044487847
 20
50.7923719618
 10
149.4428493924
 20
50.6766167535
 10
149.6895182292
 20
50.5953125
 10
149.9444552951
 20
50.545703125
 10
150.2076605903
 20
50.5291666667
 10
150.2076605903
 20
50.5291666667
 10
150.475
 20
50.545703125
 10
150.7354492188
 20
50.5939344618
 10
150.9876302083
 20
50.6752387153
 10
151.2329210069
 20
50.7896158854
 10
151.460297309
 20
50.9315538194
 10
151.6614908854
 20
51.0969184028
 10
151.8323676215
 20
51.2857096354
 10
151.9770616319
 20
51.4965494792
 10
152.0914388021
 20
51.7266818576
 10
152.1741210938
 20
51.9719726563
 10
152.2223524306
 20
52.2296657986
 10
152.2388888889
 20
52.5025173611
 10
152.2388888889
 20
52.5025173611
 10
152.2292426215
 20
52.7106011285
 10
152.2016818576
 20
52.9104166667
 10
152.1562065972
 20
53.1019639757
 10
152.0928168403
 20
53.2838650174
 10
152.0101345486
 20
53.4574978299
 10
151.9095377604
 20
53.6228624132
 10
151.7910264757
 20
53.7785807292
 10
151.6532226563
 20
53.926030816
 10
151.5030164931
 20
54.0597005208
 10
151.3445421007
 20
54.1768337674
 10
151.176421441
 20
54.2746744792
 10
151.0014105903
 20
54.3546006944
 10
150.8167534722
 20
54.4179904514
 10
150.623828125
 20
54.4620876736
 10
150.4226345486
 20
54.4896484375
 10
150.2131727431
 20
54.4979166667
  0
LWPOLYLINE
  5
99
330
1F
100
AcDbEntity
  8
0
  6
Continuous
 62
     7
100
AcDbPolyline
 90
        8
 70
   128
 43
0.0
 10
154.1790962219
 20
57.0555555556
 10
154.7965277778
 20
57.0555555556
 10
154.7965277778
 20
57.0555555556
 10
154.7965277778
 20
50.0
 10
154.7965277778
 20
50.0
 10
154.1791666667
 20
50.0
 10
154.1791666667
 20
50.0
 10
154.1791666667
 20
57.0555555556
  0
LWPOLYLINE
  5
9A
330
1F
100
AcDbEntity
  8
0
  6
Continuous
 62
     7
100
AcDbPolyline
 90
       14
 70
   128
 43
0.0
 10
155.6783914566
 20
55.0270833333
 10
156.3468207465
 20
55.0270833333
 10
156.3468207465
 20
55.0270833333
 10
158.015625
 20
51.3670138889
 10
158.015625
 20
51.3670138889
 10
159.6844292535
 20
55.0270833333
 10
159.6844292535
 20
55.0270833333
 10
160.3527777778
 20
55.0270833333
 10
160.3527777778
 20
55.0270833333
 10
158.0597222222
 20
50.0
 10
158.0597222222
 20
50.0
 10
157.9715277778
 20
50.0
 10
157.9715277778
 20
50.0
 10
155.6784722222
 20
55.0270833333
  0
LWPOLYLINE
  5
9B
330
1F
100
AcDbEntity
  8
0
  6
Continuous
 62
     7
100
AcDbPolyline
 90
       62
 70
   128
 43
0.0
 10
166.5263175964
 20
55.0270833333
 10
166.5263888889
 20
50.0
 10
166.5263888889
 20
50.0
 10
165.9090277778
 20
50.0
 10
165.9090277778
 20
50.0
 10
165.9090277778
 20
50.8695421007
 10
165.9090277778
 20
50.8695421007
 10
165.6954318576
 20
50.638031684
 10
165.4708116319
 20
50.439594184
 10
165.2310329861
 20
50.2742296007
 10
164.9802300347
 20
50.141937934
 10
164.7170247396
 20
50.0413411458
 10
164.4427951389
 20
49.9696831597
 10
164.1547851563
 20
49.9255859375
 10
163.8557508681
 20
49.9118055556
 10
163.8557508681
 20
49.9118055556
 10
163.5897894965
 20
49.9242078993
 10
163.3334743924
 20
49.9600368924
 10
163.0868055556
 20
50.0192925347
 10
162.8497829861
 20
50.1019748264
 10
162.6237847222
 20
50.2094618056
 10
162.4060546875
 20
50.340375434
 10
162.1993489583
 20
50.4947157118
 10
162.0022894965
 20
50.6738606771
 10
161.8217664931
 20
50.8695421007
 10
161.6660481771
 20
51.0748697917
 10
161.5351345486
 20
51.2912217882
 10
161.4262695313
 20
51.5185980903
 10
161.3422092014
 20
51.7556206597
 10
161.282953559
 20
52.0022894965
 10
161.247124566
 20
52.2599826389
 10
161.2347222222
 20
52.5273220486
 10
161.2347222222
 20
52.5273220486
 10
161.247124566
 20
52.7891493056
 10
161.282953559
 20
53.0427083333
 10
161.3435872396
 20
53.2852430556
 10
161.4290256076
 20
53.5195095486
 10
161.537890625
 20
53.7427517361
 10
161.6701822917
 20
53.9563476563
 10
161.8272786458
 20
54.1616753472
 10
162.0091796875
 20
54.3559787326
 10
162.2076171875
 20
54.5337456597
 10
162.4170789931
 20
54.6880859375
 10
162.6348090278
 20
54.818999566
 10
162.8635633681
 20
54.9251085069
 10
163.1019639757
 20
55.0091688368
 10
163.3500108507
 20
55.0684244792
 10
163.6077039931
 20
55.102875434
 10
163.8750434028
 20
55.1152777778
 10
163.8750434028
 20
55.1152777778
 10
164.1823459201
 20
55.1001193576
 10
164.4744900174
 20
55.0546440972
 10
164.7514756944
 20
54.9774739583
 10
165.0133029514
 20
54.8713650174
 10
165.2599717882
 20
54.7321831597
 10
165.4928602431
 20
54.5557942708
 10
165.7078342014
 20
54.3449544271
 10
165.9090277778
 20
54.0969075521
 10
165.9090277778
 20
54.0969075521
 10
165.9090277778
 20
55.0270833333
 10
165.9090277778
 20
55.0270833333
 10
166.5263888889
 20
55.0270833333
  0
LWPOLYLINE
  5
9C
330
1F
100
AcDbEntity
  8
0
  6
Continuous
 62
     7
100
AcDbPolyline
 90
       56
 70
   128
 43
0.0
 10
163.8832092285
 20
54.4979166667
 10
163.6132161458
 20
54.4813802083
 10
163.3541449653
 20
54.4331488715
 10
163.1060980903
 20
54.3518446181
 10
162.8676974826
 20
54.2388454861
 10
162.6472113715
 20
54.0969075521
 10
162.4501519097
 20
53.9274088542
 10
162.2765190972
 20
53.7331054688
 10
162.126312934
 20
53.5112413194
 10
162.0064236111
 20
53.27421875
 10
161.9209852431
 20
53.0289279514
 10
161.8686197917
 20
52.778125
 10
161.8520833333
 20
52.5204318576
 10
161.8520833333
 20
52.5204318576
 10
161.8699978299
 20
52.2641167535
 10
161.9209852431
 20
52.0133138021
 10
162.0078016493
 20
51.7680230035
 10
162.1290690104
 20
51.5282443576
 10
162.2806532118
 20
51.3050021701
 10
162.4542860243
 20
51.1079427083
 10
162.6527235243
 20
50.9370659722
 10
162.8745876736
 20
50.7923719618
 10
163.1129882813
 20
50.6766167535
 10
163.3596571181
 20
50.5953125
 10
163.614594184
 20
50.545703125
 10
163.8777994792
 20
50.5291666667
 10
163.8777994792
 20
50.5291666667
 10
164.1451388889
 20
50.545703125
 10
164.4055881076
 20
50.5939344618
 10
164.6577690972
 20
50.6752387153
 10
164.9030598958
 20
50.7896158854
 10
165.1304361979
 20
50.9315538194
 10
165.3316297743
 20
51.0969184028
 10
165.5025065104
 20
51.2857096354
 10
165.6472005208
 20
51.4965494792
 10
165.761577691
 20
51.7266818576
 10
165.8442599826
 20
51.9719726563
 10
165.8924913194
 20
52.2296657986
 10
165.9090277778
 20
52.5025173611
 10
165.9090277778
 20
52.5025173611
 10
165.8993815104
 20
52.7106011285
 10
165.8718207465
 20
52.9104166667
 10
165.8263454861
 20
53.1019639757
 10
165.7629557292
 20
53.2838650174
 10
165.6802734375
 20
53.4574978299
 10
165.5796766493
 20
53.6228624132
 10
165.4611653646
 20
53.7785807292
 10
165.3233615451
 20
53.926030816
 10
165.1731553819
 20
54.0597005208
 10
165.0146809896
 20
54.1768337674
 10
164.8465603299
 20
54.2746744792
 10
164.6715494792
 20
54.3546006944
 10
164.4868923611
 20
54.4179904514
 10
164.2939670139
 20
54.4620876736
 10
164.0927734375
 20
54.4896484375
 10
163.8833116319
 20
54.4979166667
  0
LWPOLYLINE
  5
9D
330
1F
100
AcDbEntity
  8
0
  6
Continuous
 62
     7
100
AcDbPolyline
 90
       86
 70
   128
 43
0.0
 10
167.9373979568
 20
55.0270833333
 10
168.5548611111
 20
55.0270833333
 10
168.5548611111
 20
55.0270833333
 10
168.5548611111
 20
54.1203342014
 10
168.5548611111
 20
54.1203342014
 10
168.7574327257
 20
54.3628689236
 10
168.9696506076
 20
54.570952691
 10
169.1928927951
 20
54.7418294271
 10
169.4271592882
 20
54.8782552083
 10
169.6710720486
 20
54.9816080729
 10
169.9260091146
 20
55.0560221354
 10
170.1919704861
 20
55.1001193576
 10
170.467578125
 20
55.1152777778
 10
170.467578125
 20
55.1152777778
 10
170.7459418403
 20
55.0973632813
 10
171.0077690972
 20
55.0449978299
 10
171.2530598958
 20
54.9554253472
 10
171.4818142361
 20
54.8314019097
 10
171.6885199653
 20
54.6770616319
 10
171.8676649306
 20
54.4979166667
 10
172.0164930556
 20
54.2939670139
 10
172.1363823785
 20
54.0652126736
 10
172.1859917535
 20
53.9370551215
 10
172.2287109375
 20
53.7909830729
 10
172.2645399306
 20
53.6297526042
 10
172.2948567708
 20
53.4506076389
 10
172.3169053819
 20
53.2549262153
 10
172.3334418403
 20
53.0427083333
 10
172.3444661458
 20
52.8125759549
 10
172.3472222222
 20
52.5672851563
 10
172.3472222222
 20
52.5672851563
 10
172.3472222222
 20
50.0
 10
172.3472222222
 20
50.0
 10
171.7298611111
 20
50.0
 10
171.7298611111
 20
50.0
 10
171.7298611111
 20
52.3647135417
 10
171.7298611111
 20
52.3647135417
 10
171.7284830729
 20
52.5700412326
 10
171.7257269965
 20
52.7574544271
 10
171.7202148438
 20
52.926953125
 10
171.7119466146
 20
53.0799153646
 10
171.700922309
 20
53.2135850694
 10
171.6885199653
 20
53.3293402778
 10
171.6733615451
 20
53.4285590278
 10
171.6568250868
 20
53.5084852431
 10
171.6568250868
 20
53.5084852431
 10
171.5865451389
 20
53.7399956597
 10
171.4887044271
 20
53.9411892361
 10
171.3646809896
 20
54.110687934
 10
171.2144748264
 20
54.2498697917
 10
171.0380859375
 20
54.358734809
 10
170.8368923611
 20
54.4359049479
 10
170.6108940972
 20
54.4827582465
 10
170.3600911458
 20
54.4979166667
 10
170.3600911458
 20
54.4979166667
 10
170.2112630208
 20
54.4924045139
 10
170.0665690104
 20
54.4744900174
 10
169.9246310764
 20
54.4441731771
 10
169.7882052951
 20
54.4028320313
 10
169.6545355903
 20
54.3477105035
 10
169.525
 20
54.2829427083
 10
169.3995985243
 20
54.2043945313
 10
169.2783311632
 20
54.1148220486
 10
169.1639539931
 20
54.0156032986
 10
169.0606011285
 20
53.912250434
 10
168.9668945313
 20
53.8020073785
 10
168.8828342014
 20
53.6862521701
 10
168.8097981771
 20
53.564984809
 10
168.7464084201
 20
53.4382052951
 10
168.6926649306
 20
53.3045355903
 10
168.6499457465
 20
53.1667317708
 10
168.6499457465
 20
53.1667317708
 10
168.6278971354
 20
53.0647569444
 10
168.6086046007
 20
52.9434895833
 10
168.5920681424
 20
52.8043077257
 10
168.5782877604
 20
52.6444552951
 10
168.5686414931
 20
52.4666883681
 10
168.5603732639
 20
52.2696289063
 10
168.5562391493
 20
52.0532769097
 10
168.5548611111
 20
51.8176323785
 10
168.5548611111
 20
51.8176323785
 10
168.5548611111
 20
50.0
 10
168.5548611111
 20
50.0
 10
167.9375
 20
50.0
 10
167.9375
 20
50.0
 10
167.9375
 20
55.0270833333
  0
LWPOLYLINE
  5
9E
330
1F
100
AcDbEntity
  8
0
  6
Continuous
 62
     7
100
AcDbPolyline
 90
       36
 70
   128
 43
0.0
 10
173.975944519
 20
57.14375
 10
174.0904405382
 20
57.1341037326
 10
174.1965494792
 20
57.1051649306
 10
174.294390191
 20
57.0555555556
 10
174.3825846354
 20
56.988031684
 10
174.4569986979
 20
56.9067274306
 10
174.5093641493
 20
56.8157769097
 10
174.5410590278
 20
56.7179361979
 10
174.5520833333
 20
56.6118272569
 10
174.5520833333
 20
56.6118272569
 10
174.5410590278
 20
56.5084743924
 10
174.5093641493
 20
56.4120117188
 10
174.4569986979
 20
56.3224392361
 10
174.3825846354
 20
56.2411349826
 10
174.294390191
 20
56.1736111111
 10
174.1965494792
 20
56.1240017361
 10
174.0904405382
 20
56.095062934
 10
173.9760633681
 20
56.0854166667
 10
173.9760633681
 20
56.0854166667
 10
173.8630642361
 20
56.095062934
 10
173.7597113715
 20
56.1240017361
 10
173.6618706597
 20
56.1736111111
 10
173.5736762153
 20
56.2411349826
 10
173.500640191
 20
56.3224392361
 10
173.4482747396
 20
56.4120117188
 10
173.4165798611
 20
56.5084743924
 10
173.4055555556
 20
56.6118272569
 10
173.4055555556
 20
56.6118272569
 10
173.4165798611
 20
56.7179361979
 10
173.4482747396
 20
56.8157769097
 10
173.500640191
 20
56.9067274306
 10
173.5736762153
 20
56.988031684
 10
173.6618706597
 20
57.0555555556
 10
173.7597113715
 20
57.1051649306
 10
173.8630642361
 20
57.1341037326
 10
173.9760633681
 20
57.14375
  0
LWPOLYLINE
  5
9F
330
1F
100
AcDbEntity
  8
0
  6
Continuous
 62
     7
100
AcDbPolyline
 90
        8
 70
   128
 43
0.0
 10
173.6700534821
 20
55.0270833333
 10
174.2875
 20
55.0270833333
 10
174.2875
 20
55.0270833333
 10
174.2875
 20
50.0
 10
174.2875
 20
50.0
 10
173.6701388889
 20
50.0
 10
173.6701388889
 20
50.0
 10
173.6701388889
 20
55.0270833333
  0
LWPOLYLINE
  5
A0
330
1F
100
AcDbEntity
  8
0
  6
Continuous
 62
     7
100
AcDbPolyline
 90
      124
 70
   128
 43
0.0
 10
180.7256937027
 20
53.9370551215
 10
180.2089301215
 20
53.6159722222
 10
180.2089301215
 20
53.6159722222
 10
180.0339192708
 20
53.8226779514
 10
179.8423719618
 20
54.0018229167
 10
179.6370442708
 20
54.1534071181
 10
179.4165581597
 20
54.2774305556
 10
179.1795355903
 20
54.3738932292
 10
178.9273546007
 20
54.4427951389
 10
178.6613932292
 20
54.4841362847
 10
178.3788953993
 20
54.4979166667
 10
178.3788953993
 20
54.4979166667
 10
178.1528971354
 20
54.4882703993
 10
177.9351671007
 20
54.4620876736
 10
177.7284613715
 20
54.4166124132
 10
177.5314019097
 20
54.3546006944
 10
177.3439887153
 20
54.273296441
 10
177.1662217882
 20
54.174077691
 10
176.9981011285
 20
54.0583224826
 10
176.8396267361
 20
53.9232747396
 10
176.6963107639
 20
53.7758246528
 10
176.5722873264
 20
53.6201063368
 10
176.4661783854
 20
53.4574978299
 10
176.3807400174
 20
53.2866210938
 10
176.3132161458
 20
53.1088541667
 10
176.2663628472
 20
52.9228190104
 10
176.2374240451
 20
52.728515625
 10
176.2277777778
 20
52.5273220486
 10
176.2277777778
 20
52.5273220486
 10
176.2456922743
 20
52.2641167535
 10
176.2980577257
 20
52.0091796875
 10
176.3862521701
 20
51.7611328125
 10
176.5088975694
 20
51.5213541667
 10
176.6632378472
 20
51.2994900174
 10
176.8437608507
 20
51.1024305556
 10
177.0490885417
 20
50.9329318576
 10
177.2819769965
 20
50.7896158854
 10
177.5355360243
 20
50.6752387153
 10
177.802875434
 20
50.5939344618
 10
178.0853732639
 20
50.545703125
 10
178.3830295139
 20
50.5291666667
 10
178.3830295139
 20
50.5291666667
 10
178.6558810764
 20
50.5429470486
 10
178.9163302951
 20
50.5842881944
 10
179.1629991319
 20
50.6531901042
 10
179.3986436632
 20
50.7496527778
 10
179.6205078125
 20
50.8736762153
 10
179.8285915799
 20
51.0252604167
 10
180.0256510417
 20
51.2044053819
 10
180.2089301215
 20
51.4111111111
 10
180.2089301215
 20
51.4111111111
 10
180.7256944444
 20
51.0721137153
 10
180.7256944444
 20
51.0721137153
 10
180.6319878472
 20
50.9384440104
 10
180.5300130208
 20
50.8116644965
 10
180.4197699653
 20
50.6931532118
 10
180.3026367187
 20
50.5829101563
 10
180.1786132812
 20
50.4795572917
 10
180.0449435764
 20
50.3844726563
 10
179.9043836806
 20
50.2962782118
 10
179.7569335938
 20
50.2163519965
 10
179.602593316
 20
50.1446940104
 10
179.4427408854
 20
50.0826822917
 10
179.2787543403
 20
50.0303168403
 10
179.1078776042
 20
49.9875976563
 10
178.9328667535
 20
49.9545247396
 10
178.7509657118
 20
49.9310980903
 10
178.5649305556
 20
49.9159396701
 10
178.3733832465
 20
49.9118055556
 10
178.3733832465
 20
49.9118055556
 10
178.0812391493
 20
49.9228298611
 10
177.802875434
 20
49.9586588542
 10
177.5369140625
 20
50.0165364583
 10
177.2833550347
 20
50.0978407118
 10
177.0421983507
 20
50.2025716146
 10
176.8134440104
 20
50.3307291667
 10
176.5984700521
 20
50.4823133681
 10
176.3958984375
 20
50.6573242188
 10
176.2112413194
 20
50.8488715278
 10
176.0527669271
 20
51.0514431424
 10
175.917719184
 20
51.2622829861
 10
175.8074761285
 20
51.4841471354
 10
175.7206597222
 20
51.7170355903
 10
175.6600260417
 20
51.9581922743
 10
175.6228190104
 20
52.2103732639
 10
175.6104166667
 20
52.4722005208
 10
175.6104166667
 20
52.4722005208
 10
175.6159288194
 20
52.6499674479
 10
175.633843316
 20
52.8249782986
 10
175.6614040799
 20
52.9972330729
 10
175.7027452257
 20
53.1653537326
 10
175.7537326389
 20
53.330718316
 10
175.8171223958
 20
53.4933268229
 10
175.8915364583
 20
53.6518012153
 10
175.9769748264
 20
53.8075195313
 10
176.0734375
 20
53.9577256944
 10
176.1781684028
 20
54.0982855903
 10
176.2911675347
 20
54.2319552951
 10
176.413812934
 20
54.3559787326
 10
176.5433485243
 20
54.471733941
 10
176.6825303819
 20
54.5792209201
 10
176.8313585069
 20
54.6784396701
 10
176.9870768229
 20
54.769390191
 10
177.1496853299
 20
54.8506944444
 10
177.3178059896
 20
54.9209743924
 10
177.4900607639
 20
54.9802300347
 10
177.667827691
 20
55.0284613715
 10
177.8497287326
 20
55.067046441
 10
178.0357638889
 20
55.0932291667
 10
178.2273111979
 20
55.109765625
 10
178.4243706597
 20
55.1152777778
 10
178.4243706597
 20
55.1152777778
 10
178.6710394965
 20
55.1056315104
 10
178.9149522569
 20
55.0766927083
 10
179.1533528646
 20
55.0298394097
 10
179.3876193576
 20
54.9623155382
 10
179.6108615451
 20
54.8796332465
 10
179.8175672743
 20
54.7859266493
 10
180.0049804688
 20
54.6798177083
 10
180.1758572049
 20
54.5626844618
 10
180.3315755208
 20
54.4317708333
 10
180.4748914931
 20
54.2843207465
 10
180.6071831597
 20
54.1189561632
 10
180.7256944444
 20
53.9370551215
  0
LWPOLYLINE
  5
A1
330
1F
100
AcDbEntity
  8
0
  6
Continuous
 62
     7
100
AcDbPolyline
 90
       24
 70
   128
 43
0.0
 10
78.8336396217
 20
119.525
 10
84.2067307692
 20
119.525
 10
84.2067307692
 20
119.525
 10
84.2067307692
 20
118.5480769231
 10
84.2067307692
 20
118.5480769231
 10
79.6884615385
 20
118.5480769231
 10
79.6884615385
 20
118.5480769231
 10
79.6884615385
 20
115.6173076923
 10
79.6884615385
 20
115.6173076923
 10
84.2067307692
 20
115.6173076923
 10
84.2067307692
 20
115.6173076923
 10
84.2067307692
 20
114.6403846154
 10
84.2067307692
 20
114.6403846154
 10
79.6884615385
 20
114.6403846154
 10
79.6884615385
 20
114.6403846154
 10
79.6884615385
 20
110.9769230769
 10
79.6884615385
 20
110.9769230769
 10
84.2067307692
 20
110.9769230769
 10
84.2067307692
 20
110.9769230769
 10
84.2067307692
 20
110.0
 10
84.2067307692
 20
110.0
 10
78.8336538462
 20
110.0
 10
78.8336538462
 20
110.0
 10
78.8336538462
 20
119.525
  0
LWPOLYLINE
  5
A2
330
1F
100
AcDbEntity
  8
0
  6
Continuous
 62
     7
100
AcDbPolyline
 90
        8
 70
   128
 43
0.0
 10
85.0614905357
 20
114.1519230769
 10
88.725
 20
114.1519230769
 10
88.725
 20
114.1519230769
 10
88.725
 20
113.175
 10
88.725
 20
113.175
 10
85.0615384615
 20
113.175
 10
85.0615384615
 20
113.175
 10
85.0615384615
 20
114.1519230769
  0
LWPOLYLINE
  5
A3
330
1F
100
AcDbEntity
  8
0
  6
Continuous
 62
     7
100
AcDbPolyline
 90
       86
 70
   128
 43
0.0
 10
90.0682210922
 20
119.7692307692
 10
90.9230769231
 20
119.7692307692
 10
90.9230769231
 20
119.7692307692
 10
90.9230769231
 20
115.6459284856
 10
90.9230769231
 20
115.6459284856
 10
91.20546875
 20
115.9836538462
 10
91.503125
 20
116.2755859375
 10
91.8122295673
 20
116.5236328125
 10
92.1365985577
 20
116.7239783654
 10
92.4743239183
 20
116.8804387019
 10
92.8273137019
 20
116.9930138221
 10
93.1917518029
 20
117.0597956731
 10
93.5714543269
 20
117.0826923077
 10
93.5714543269
 20
117.0826923077
 10
93.9568810096
 20
117.0578876202
 10
94.3194110577
 20
116.9853816106
 10
94.6590444712
 20
116.8613581731
 10
94.97578125
 20
116.6896334135
 10
95.2619891827
 20
116.4759314904
 10
95.5100360577
 20
116.2297926683
 10
95.7161057692
 20
115.9474008413
 10
95.8821063702
 20
115.6325721154
 10
95.950796274
 20
115.4551231971
 10
96.0099459135
 20
115.2528695913
 10
96.0595552885
 20
115.0296274038
 10
96.1015324519
 20
114.7815805288
 10
96.1320612981
 20
114.5087289663
 10
96.1549579327
 20
114.2148888221
 10
96.1702223558
 20
113.8962439904
 10
96.1740384615
 20
113.554702524
 10
96.1740384615
 20
113.554702524
 10
96.1740384615
 20
110.0
 10
96.1740384615
 20
110.0
 10
95.3192307692
 20
110.0
 10
95.3192307692
 20
110.0
 10
95.3192307692
 20
113.27421875
 10
95.3192307692
 20
113.27421875
 10
95.3173227163
 20
113.5585186298
 10
95.3135066106
 20
113.8180138221
 10
95.305874399
 20
114.0527043269
 10
95.2944260817
 20
114.2644981971
 10
95.2810697115
 20
114.4495793269
 10
95.2638972356
 20
114.6098557692
 10
95.2429086538
 20
114.7472355769
 10
95.2200120192
 20
114.8579026442
 10
95.2200120192
 20
114.8579026442
 10
95.1169771635
 20
115.1784555288
 10
94.9795973558
 20
115.45703125
 10
94.8078725962
 20
115.6917217548
 10
94.5998948317
 20
115.8844350962
 10
94.3575721154
 20
116.035171274
 10
94.0809044471
 20
116.1420222356
 10
93.767983774
 20
116.2068960337
 10
93.420718149
 20
116.2278846154
 10
93.420718149
 20
116.2278846154
 10
93.2146484375
 20
116.2202524038
 10
93.0143028846
 20
116.1954477163
 10
92.8177734375
 20
116.1534705529
 10
92.6288762019
 20
116.0962289663
 10
92.4437950721
 20
116.019906851
 10
92.2663461538
 20
115.9302283654
 10
92.0927133413
 20
115.821469351
 10
91.9248046875
 20
115.6974459135
 10
91.7664362981
 20
115.5600661058
 10
91.6233323317
 20
115.4169621394
 10
91.4935847356
 20
115.2643179087
 10
91.3771935096
 20
115.1040414663
 10
91.2760667067
 20
114.9361328125
 10
91.188296274
 20
114.7605919471
 10
91.1138822115
 20
114.5755108173
 10
91.0547325721
 20
114.3847055288
 10
91.0547325721
 20
114.3847055288
 10
91.024203726
 20
114.2454176683
 10
90.9974909856
 20
114.0794170673
 10
90.974594351
 20
113.886703726
 10
90.9555138221
 20
113.6653695913
 10
90.9421574519
 20
113.4192307692
 10
90.9307091346
 20
113.1444711538
 10
90.924984976
 20
112.844906851
 10
90.9230769231
 20
112.5167217548
 10
90.9230769231
 20
112.5167217548
 10
90.9230769231
 20
110.0
 10
90.9230769231
 20
110.0
 10
90.0682692308
 20
110.0
 10
90.0682692308
 20
110.0
 10
90.0682692308
 20
119.7692307692
  0
LWPOLYLINE
  5
A4
330
1F
100
AcDbEntity
  8
0
  6
Continuous
 62
     7
100
AcDbPolyline
 90
      100
 70
   128
 43
0.0
 10
103.8405895233
 20
112.1980769231
 10
104.6
 20
111.7992938702
 10
104.6
 20
111.7992938702
 10
104.4130108173
 20
111.4806490385
 10
104.2126652644
 20
111.1944411058
 10
103.9989633413
 20
110.9387620192
 10
103.7699969952
 20
110.7174278846
 10
103.5276742788
 20
110.5247145433
 10
103.2719951923
 20
110.3568058894
 10
102.9991436298
 20
110.2117938702
 10
102.7129356971
 20
110.0915865385
 10
102.4095552885
 20
109.9980919471
 10
102.087094351
 20
109.9313100962
 10
101.7455528846
 20
109.8912409856
 10
101.3849308894
 20
109.8778846154
 10
101.3849308894
 20
109.8778846154
 10
100.9842397837
 20
109.8950570913
 10
100.6064453125
 20
109.9465745192
 10
100.251547476
 20
110.032436899
 10
99.9176382212
 20
110.1526442308
 10
99.6085336538
 20
110.3071965144
 10
99.3204176683
 20
110.49609375
 10
99.0532902644
 20
110.7193359375
 10
98.8109675481
 20
110.9769230769
 10
98.5934495192
 20
111.2554987981
 10
98.4045522837
 20
111.5436147837
 10
98.2461838942
 20
111.8412710337
 10
98.1164362981
 20
112.1484675481
 10
98.0134014423
 20
112.463296274
 10
97.9408954327
 20
112.7857572115
 10
97.8989182692
 20
113.1196664663
 10
97.8836538462
 20
113.4612079327
 10
97.8836538462
 20
113.4612079327
 10
97.8970102163
 20
113.7817608173
 10
97.9332632212
 20
114.0946814904
 10
97.9962289663
 20
114.398061899
 10
98.083999399
 20
114.6938100962
 10
98.1965745192
 20
114.9800180288
 10
98.3339543269
 20
115.2566856971
 10
98.498046875
 20
115.5257211538
 10
98.6850360577
 20
115.7852163462
 10
98.6850360577
 20
115.7852163462
 10
98.9502554087
 20
116.0885967548
 10
99.2364633413
 20
116.3538161058
 10
99.5436598558
 20
116.5751502404
 10
99.8737530048
 20
116.7583233173
 10
100.2248347356
 20
116.8995192308
 10
100.5969050481
 20
117.0025540865
 10
100.9899639423
 20
117.061703726
 10
101.4059194712
 20
117.0826923077
 10
101.4059194712
 20
117.0826923077
 10
101.8333233173
 20
117.061703726
 10
102.2397385817
 20
116.9968299279
 10
102.6232572115
 20
116.8899789663
 10
102.9838792067
 20
116.7411508413
 10
103.3235126202
 20
116.5484375
 10
103.640249399
 20
116.3118389423
 10
103.9359975962
 20
116.0332632212
 10
104.2088491587
 20
115.7127103365
 10
104.2088491587
 20
115.7127103365
 10
104.384390024
 20
115.4627554087
 10
104.5351262019
 20
115.1994441106
 10
104.6648737981
 20
114.9189603365
 10
104.7698167067
 20
114.6251201923
 10
104.8537710337
 20
114.316015625
 10
104.914828726
 20
113.9916466346
 10
104.9510817308
 20
113.6520132212
 10
104.9663461538
 20
113.2971153846
 10
104.9663461538
 20
113.2971153846
 10
98.7384615385
 20
113.2971153846
 10
98.7384615385
 20
113.2971153846
 10
98.7556340144
 20
113.0223557692
 10
98.7937950721
 20
112.7590444712
 10
98.8548527644
 20
112.5090895433
 10
98.9388070913
 20
112.2724909856
 10
99.0418419471
 20
112.0492487981
 10
99.1677734375
 20
111.8374549279
 10
99.3166015625
 20
111.6390174279
 10
99.4864182692
 20
111.4520282452
 10
99.6734074519
 20
111.2841195913
 10
99.869936899
 20
111.1371995192
 10
100.0779146635
 20
111.0131760817
 10
100.2973407452
 20
110.9120492788
 10
100.5263070913
 20
110.8338191106
 10
100.7667217548
 20
110.7784855769
 10
101.0166766827
 20
110.744140625
 10
101.2780799279
 20
110.7326923077
 10
101.2780799279
 20
110.7326923077
 10
101.5337590144
 20
110.7422325721
 10
101.7837139423
 20
110.7727614183
 10
102.0317608173
 20
110.8242788462
 10
102.2759915865
 20
110.8948768029
 10
102.5106820913
 20
110.9826472356
 10
102.7262920673
 20
111.0856820913
 10
102.9228215144
 20
111.2001652644
 10
103.1021784856
 20
111.3280048077
 10
103.2758112981
 20
111.4825570913
 10
103.4570763221
 20
111.6809945913
 10
103.6459735577
 20
111.917593149
 10
103.8405949519
 20
112.1980769231
  0
LWPOLYLINE
  5
A5
330
1F
100
AcDbEntity
  8
0
  6
Continuous
 62
     7
100
AcDbPolyline
 90
       33
 70
   128
 43
0.0
 10
104.1114926338
 20
114.1519230769
 10
104.0104116587
 20
114.4896484375
 10
103.8863882212
 20
114.7911207933
 10
103.7432842548
 20
115.0563401442
 10
103.5791917067
 20
115.2853064904
 10
103.392202524
 20
115.4875600962
 10
103.1746844952
 20
115.6688251202
 10
102.930453726
 20
115.8291015625
 10
102.6576021635
 20
115.9683894231
 10
102.367578125
 20
116.0828725962
 10
102.0680138221
 20
116.1630108173
 10
101.7627253606
 20
116.2126201923
 10
101.4498046875
 20
116.2278846154
 10
101.4498046875
 20
116.2278846154
 10
101.194125601
 20
116.218344351
 10
100.946078726
 20
116.1878155048
 10
100.7075721154
 20
116.1362980769
 10
100.4805138221
 20
116.0657001202
 10
100.2591796875
 20
115.9722055288
 10
100.0492938702
 20
115.8615384615
 10
99.8489483173
 20
115.7279747596
 10
99.656234976
 20
115.5753305288
 10
99.656234976
 20
115.5753305288
 10
99.522671274
 20
115.4493990385
 10
99.3986478365
 20
115.308203125
 10
99.2822566106
 20
115.1536508413
 10
99.175405649
 20
114.9838341346
 10
99.076186899
 20
114.7968449519
 10
98.9846003606
 20
114.596499399
 10
98.9025540865
 20
114.382797476
 10
98.828140024
 20
114.1519230769
 10
98.828140024
 20
114.1519230769
 10
104.1115384615
 20
114.1519230769
  0
LWPOLYLINE
  5
A6
330
1F
100
AcDbEntity
  8
0
  6
Continuous
 62
     7
100
AcDbPolyline
 90
       62
 70
   128
 43
0.0
 10
113.7586236
 20
116.9605769231
 10
113.7586538462
 20
110.0
 10
113.7586538462
 20
110.0
 10
112.9038461538
 20
110.0
 10
112.9038461538
 20
110.0
 10
112.9038461538
 20
111.2039813702
 10
112.9038461538
 20
111.2039813702
 10
112.6080979567
 20
110.8834284856
 10
112.2970853365
 20
110.6086688702
 10
111.9650841346
 20
110.379702524
 10
111.6178185096
 20
110.1965294471
 10
111.2533804087
 20
110.0572415865
 10
110.8736778846
 20
109.9580228365
 10
110.4748948317
 20
109.8969651442
 10
110.0608473558
 20
109.8778846154
 10
110.0608473558
 20
109.8778846154
 10
109.692593149
 20
109.8950570913
 10
109.3376953125
 20
109.9446664663
 10
108.9961538462
 20
110.0267127404
 10
108.66796875
 20
110.1411959135
 10
108.3550480769
 20
110.2900240385
 10
108.0535757212
 20
110.4712890625
 10
107.7673677885
 20
110.6849909856
 10
107.494516226
 20
110.9330378606
 10
107.2445612981
 20
111.2039813702
 10
107.0289513221
 20
111.48828125
 10
106.8476862981
 20
111.7878455529
 10
106.6969501202
 20
112.1026742788
 10
106.5805588942
 20
112.430859375
 10
106.4985126202
 20
112.7724008413
 10
106.4489032452
 20
113.1292067308
 10
106.4317307692
 20
113.4993689904
 10
106.4317307692
 20
113.4993689904
 10
106.4489032452
 20
113.8618990385
 10
106.4985126202
 20
114.2129807692
 10
106.5824669471
 20
114.5487980769
 10
106.700766226
 20
114.8731670673
 10
106.8515024038
 20
115.1822716346
 10
107.0346754808
 20
115.4780198317
 10
107.2521935096
 20
115.7623197115
 10
107.5040564904
 20
116.0313551683
 10
107.7788161058
 20
116.2774939904
 10
108.0688401442
 20
116.4911959135
 10
108.3703125
 20
116.6724609375
 10
108.6870492788
 20
116.8193810096
 10
109.0171424279
 20
116.9357722356
 10
109.3605919471
 20
117.0178185096
 10
109.7173978365
 20
117.0655198317
 10
110.0875600962
 20
117.0826923077
 10
110.0875600962
 20
117.0826923077
 10
110.5130558894
 20
117.061703726
 10
110.917563101
 20
116.9987379808
 10
111.3010817308
 20
116.8918870192
 10
111.6636117788
 20
116.7449669471
 10
112.0051532452
 20
116.5522536058
 10
112.3276141827
 20
116.3080228365
 10
112.6252704327
 20
116.0160907452
 10
112.9038461538
 20
115.672641226
 10
112.9038461538
 20
115.672641226
 10
112.9038461538
 20
116.9605769231
 10
112.9038461538
 20
116.9605769231
 10
113.7586538462
 20
116.9605769231
  0
LWPOLYLINE
  5
A7
330
1F
100
AcDbEntity
  8
0
  6
Continuous
 62
     7
100
AcDbPolyline
 90
       56
 70
   128
 43
0.0
 10
110.0989580154
 20
116.2278846154
 10
109.7250300481
 20
116.2049879808
 10
109.3663161058
 20
116.1382061298
 10
109.0228665865
 20
116.0256310096
 10
108.6927734375
 20
115.8691706731
 10
108.387484976
 20
115.672641226
 10
108.1146334135
 20
115.4379507212
 10
107.87421875
 20
115.1689152644
 10
107.6662409856
 20
114.86171875
 10
107.5002403846
 20
114.5335336538
 10
107.3819411058
 20
114.1939002404
 10
107.3094350962
 20
113.8466346154
 10
107.2865384615
 20
113.489828726
 10
107.2865384615
 20
113.489828726
 10
107.311343149
 20
113.1349308894
 10
107.3819411058
 20
112.7876652644
 10
107.5021484375
 20
112.448031851
 10
107.6700570913
 20
112.116030649
 10
107.8799429087
 20
111.8069260817
 10
108.1203575721
 20
111.5340745192
 10
108.3951171875
 20
111.2974759615
 10
108.7023137019
 20
111.0971304087
 10
109.032406851
 20
110.9368539663
 10
109.3739483173
 20
110.8242788462
 10
109.726938101
 20
110.7555889423
 10
110.0913762019
 20
110.7326923077
 10
110.0913762019
 20
110.7326923077
 10
110.4615384615
 20
110.7555889423
 10
110.8221604567
 20
110.8223707933
 10
111.1713341346
 20
110.9349459135
 10
111.5109675481
 20
111.0933143029
 10
111.825796274
 20
111.28984375
 10
112.1043719952
 20
111.5188100962
 10
112.3409705529
 20
111.7802133413
 10
112.5413161058
 20
112.0721454327
 10
112.6996844952
 20
112.3907902644
 10
112.8141676683
 20
112.7304236779
 10
112.8809495192
 20
113.0872295673
 10
112.9038461538
 20
113.4650240385
 10
112.9038461538
 20
113.4650240385
 10
112.8904897837
 20
113.753140024
 10
112.852328726
 20
114.0298076923
 10
112.7893629808
 20
114.2950270433
 10
112.7015925481
 20
114.546890024
 10
112.587109375
 20
114.7873046875
 10
112.4478215144
 20
115.0162710337
 10
112.2837289663
 20
115.2318810096
 10
112.0929236779
 20
115.4360426683
 10
111.8849459135
 20
115.6211237981
 10
111.6655198317
 20
115.7833082933
 10
111.4327373798
 20
115.9187800481
 10
111.1904146635
 20
116.0294471154
 10
110.9347355769
 20
116.1172175481
 10
110.6676081731
 20
116.1782752404
 10
110.3890324519
 20
116.2164362981
 10
110.0990084135
 20
116.2278846154
  0
LWPOLYLINE
  5
A8
330
1F
100
AcDbEntity
  8
0
  6
Continuous
 62
     7
100
AcDbPolyline
 90
        8
 70
   128
 43
0.0
 10
115.5903339386
 20
119.7692307692
 10
116.4451923077
 20
119.7692307692
 10
116.4451923077
 20
119.7692307692
 10
116.4451923077
 20
110.0
 10
116.4451923077
 20
110.0
 10
115.5903846154
 20
110.0
 10
115.5903846154
 20
110.0
 10
115.5903846154
 20
119.7692307692
  0
LWPOLYLINE
  5
A9
330
1F
100
AcDbEntity
  8
0
  6
Continuous
 62
     7
100
AcDbPolyline
 90
       24
 70
   128
 43
0.0
 10
119.2538142204
 20
119.7692307692
 10
120.1086538462
 20
119.7692307692
 10
120.1086538462
 20
119.7692307692
 10
120.1086538462
 20
116.9605769231
 10
120.1086538462
 20
116.9605769231
 10
121.3298076923
 20
116.9605769231
 10
121.3298076923
 20
116.9605769231
 10
121.3298076923
 20
116.1057692308
 10
121.3298076923
 20
116.1057692308
 10
120.1086538462
 20
116.1057692308
 10
120.1086538462
 20
116.1057692308
 10
120.1086538462
 20
110.0
 10
120.1086538462
 20
110.0
 10
119.2538461538
 20
110.0
 10
119.2538461538
 20
110.0
 10
119.2538461538
 20
116.1057692308
 10
119.2538461538
 20
116.1057692308
 10
118.0326923077
 20
116.1057692308
 10
118.0326923077
 20
116.1057692308
 10
118.0326923077
 20
116.9605769231
 10
118.0326923077
 20
116.9605769231
 10
119.2538461538
 20
116.9605769231
 10
119.2538461538
 20
116.9605769231
 10
119.2538461538
 20
119.7692307692
  0
LWPOLYLINE
  5
AA
330
1F
100
AcDbEntity
  8
0
  6
Continuous
 62
     7
100
AcDbPolyline
 90
       86
 70
   128
 43
0.0
 10
122.7951645851
 20
119.7692307692
 10
123.65
 20
119.7692307692
 10
123.65
 20
119.7692307692
 10
123.65
 20
115.6459284856
 10
123.65
 20
115.6459284856
 10
123.9323918269
 20
115.9836538462
 10
124.2300480769
 20
116.2755859375
 10
124.5391526442
 20
116.5236328125
 10
124.8635216346
 20
116.7239783654
 10
125.2012469952
 20
116.8804387019
 10
125.5542367788
 20
116.9930138221
 10
125.9186748798
 20
117.0597956731
 10
126.2983774038
 20
117.0826923077
 10
126.2983774038
 20
117.0826923077
 10
126.6838040865
 20
117.0578876202
 10
127.0463341346
 20
116.9853816106
 10
127.3859675481
 20
116.8613581731
 10
127.7027043269
 20
116.6896334135
 10
127.9889122596
 20
116.4759314904
 10
128.2369591346
 20
116.2297926683
 10
128.4430288462
 20
115.9474008413
 10
128.6090294471
 20
115.6325721154
 10
128.677719351
 20
115.4551231971
 10
128.7368689904
 20
115.2528695913
 10
128.7864783654
 20
115.0296274038
 10
128.8284555288
 20
114.7815805288
 10
128.858984375
 20
114.5087289663
 10
128.8818810096
 20
114.2148888221
 10
128.8971454327
 20
113.8962439904
 10
128.9009615385
 20
113.554702524
 10
128.9009615385
 20
113.554702524
 10
128.9009615385
 20
110.0
 10
128.9009615385
 20
110.0
 10
128.0461538462
 20
110.0
 10
128.0461538462
 20
110.0
 10
128.0461538462
 20
113.27421875
 10
128.0461538462
 20
113.27421875
 10
128.0442457933
 20
113.5585186298
 10
128.0404296875
 20
113.8180138221
 10
128.032797476
 20
114.0527043269
 10
128.0213491587
 20
114.2644981971
 10
128.0079927885
 20
114.4495793269
 10
127.9908203125
 20
114.6098557692
 10
127.9698317308
 20
114.7472355769
 10
127.9469350962
 20
114.8579026442
 10
127.9469350962
 20
114.8579026442
 10
127.8439002404
 20
115.1784555288
 10
127.7065204327
 20
115.45703125
 10
127.5347956731
 20
115.6917217548
 10
127.3268179087
 20
115.8844350962
 10
127.0844951923
 20
116.035171274
 10
126.807827524
 20
116.1420222356
 10
126.494906851
 20
116.2068960337
 10
126.147641226
 20
116.2278846154
 10
126.147641226
 20
116.2278846154
 10
125.9415715144
 20
116.2202524038
 10
125.7412259615
 20
116.1954477163
 10
125.5446965144
 20
116.1534705529
 10
125.3557992788
 20
116.0962289663
 10
125.170718149
 20
116.019906851
 10
124.9932692308
 20
115.9302283654
 10
124.8196364183
 20
115.821469351
 10
124.6517277644
 20
115.6974459135
 10
124.493359375
 20
115.5600661058
 10
124.3502554087
 20
115.4169621394
 10
124.2205078125
 20
115.2643179087
 10
124.1041165865
 20
115.1040414663
 10
124.0029897837
 20
114.9361328125
 10
123.915219351
 20
114.7605919471
 10
123.8408052885
 20
114.5755108173
 10
123.781655649
 20
114.3847055288
 10
123.781655649
 20
114.3847055288
 10
123.7511268029
 20
114.2454176683
 10
123.7244140625
 20
114.0794170673
 10
123.7015174279
 20
113.886703726
 10
123.682436899
 20
113.6653695913
 10
123.6690805288
 20
113.4192307692
 10
123.6576322115
 20
113.1444711538
 10
123.6519080529
 20
112.844906851
 10
123.65
 20
112.5167217548
 10
123.65
 20
112.5167217548
 10
123.65
 20
110.0
 10
123.65
 20
110.0
 10
122.7951923077
 20
110.0
 10
122.7951923077
 20
110.0
 10
122.7951923077
 20
119.7692307692
  0
LWPOLYLINE
  5
AB
330
1F
100
AcDbEntity
  8
0
  6
Continuous
 62
     7
100
AcDbPolyline
 90
      143
 70
   128
 43
0.0
 10
134.5182657242
 20
116.9605769231
 10
135.3730769231
 20
116.9605769231
 10
135.3730769231
 20
116.9605769231
 10
135.3730769231
 20
115.7508713942
 10
135.3730769231
 20
115.7508713942
 10
135.6096754808
 20
116.0637920673
 10
135.8500901442
 20
116.3309194712
 10
136.0924128606
 20
116.5522536058
 10
136.3385516827
 20
116.729702524
 10
136.3385516827
 20
116.729702524
 10
136.6839092548
 20
116.8842548077
 10
137.0388070913
 20
116.994921875
 10
137.4013371394
 20
117.0597956731
 10
137.7734074519
 20
117.0826923077
 10
137.7734074519
 20
117.0826923077
 10
138.0252704327
 20
117.0693359375
 10
138.2695012019
 20
117.0330829327
 10
138.5080078125
 20
116.9701171875
 10
138.7388822115
 20
116.8823467548
 10
138.9583082933
 20
116.7735877404
 10
139.1548377404
 20
116.6495643029
 10
139.3322866587
 20
116.5083683894
 10
139.4868389423
 20
116.35
 10
139.6261268029
 20
116.1668269231
 10
139.7577824519
 20
115.9474008413
 10
139.8779897837
 20
115.6936298077
 10
139.988656851
 20
115.4016977163
 10
139.988656851
 20
115.4016977163
 10
140.103140024
 20
115.6020432692
 10
140.2252554087
 20
115.7890324519
 10
140.3550030048
 20
115.9645733173
 10
140.4904747596
 20
116.1267578125
 10
140.633578726
 20
116.2774939904
 10
140.782406851
 20
116.4148737981
 10
140.9388671875
 20
116.5408052885
 10
141.1029597356
 20
116.6533804087
 10
141.442593149
 20
116.8403695913
 10
141.7974909856
 20
116.9758413462
 10
142.1619290865
 20
117.0559795673
 10
142.5416316106
 20
117.0826923077
 10
142.5416316106
 20
117.0826923077
 10
142.8908052885
 20
117.0597956731
 10
143.2189903846
 20
116.9930138221
 10
143.526186899
 20
116.878530649
 10
143.8123948317
 20
116.7201622596
 10
144.0699819712
 20
116.5217247596
 10
144.2932241587
 20
116.2870342548
 10
144.4802133413
 20
116.0179987981
 10
144.6309495192
 20
115.7108022837
 10
144.6939152644
 20
115.539077524
 10
144.7473407452
 20
115.3463641827
 10
144.7931340144
 20
115.1345703125
 10
144.8312950721
 20
114.9017878606
 10
144.8599158654
 20
114.6499248798
 10
144.8809044471
 20
114.3770733173
 10
144.8942608173
 20
114.0832331731
 10
144.8980769231
 20
113.7703125
 10
144.8980769231
 20
113.7703125
 10
144.8980769231
 20
110.0
 10
144.8980769231
 20
110.0
 10
144.0432692308
 20
110.0
 10
144.0432692308
 20
110.0
 10
144.0432692308
 20
113.7741286058
 10
144.0432692308
 20
113.7741286058
 10
144.0413611779
 20
114.0412560096
 10
144.0337289663
 20
114.2873948317
 10
144.0203725962
 20
114.5106370192
 10
144.0032001202
 20
114.712890625
 10
143.9803034856
 20
114.8922475962
 10
143.9516826923
 20
115.0506159856
 10
143.9192457933
 20
115.1879957933
 10
143.8810847356
 20
115.3024789663
 10
143.7856820913
 20
115.5009164663
 10
143.6616586538
 20
115.6802734375
 10
143.5090144231
 20
115.836733774
 10
143.327749399
 20
115.9741135817
 10
143.1235877404
 20
116.084780649
 10
142.8984375
 20
116.1649188702
 10
142.6561147837
 20
116.2126201923
 10
142.3928034856
 20
116.2278846154
 10
142.3928034856
 20
116.2278846154
 10
142.0703425481
 20
116.2049879808
 10
141.7631460337
 20
116.1324819712
 10
141.4673978365
 20
116.0141826923
 10
141.1869140625
 20
115.8462740385
 10
140.931234976
 20
115.6402043269
 10
140.7137169471
 20
115.4016977163
 10
140.5324519231
 20
115.1307542067
 10
140.3874399038
 20
114.829281851
 10
140.3282902644
 20
114.6575570913
 10
140.2767728365
 20
114.4591195913
 10
140.2347956731
 20
114.233969351
 10
140.1985426683
 20
113.9821063702
 10
140.1718299279
 20
113.703530649
 10
140.1508413462
 20
113.3982421875
 10
140.1393930288
 20
113.0662409856
 10
140.1355769231
 20
112.7075270433
 10
140.1355769231
 20
112.7075270433
 10
140.1355769231
 20
110.0
 10
140.1355769231
 20
110.0
 10
139.2807692308
 20
110.0
 10
139.2807692308
 20
110.0
 10
139.2807692308
 20
113.539438101
 10
139.2807692308
 20
113.539438101
 10
139.2788611779
 20
113.8390024038
 10
139.2712289663
 20
114.1156700721
 10
139.2578725962
 20
114.365625
 10
139.2407001202
 20
114.5907752404
 10
139.2178034856
 20
114.7911207933
 10
139.1910907452
 20
114.9647536058
 10
139.1586538462
 20
115.1154897837
 10
139.1204927885
 20
115.2395132212
 10
139.0269981971
 20
115.4532151442
 10
138.9029747596
 20
115.6440204327
 10
138.748422476
 20
115.8119290865
 10
138.565249399
 20
115.9569411058
 10
138.3591796875
 20
116.0752403846
 10
138.1321213942
 20
116.1611027644
 10
137.887890625
 20
116.2107121394
 10
137.6245793269
 20
116.2278846154
 10
137.6245793269
 20
116.2278846154
 10
137.3154747596
 20
116.2049879808
 10
137.0159104567
 20
116.134390024
 10
136.7258864183
 20
116.0179987981
 10
136.4473106971
 20
115.8558143029
 10
136.1916316106
 20
115.6535606971
 10
135.970297476
 20
115.4188701923
 10
135.7852163462
 20
115.1536508413
 10
135.6363882212
 20
114.8540865385
 10
135.5753305288
 20
114.6861778846
 10
135.5219050481
 20
114.4991887019
 10
135.4761117788
 20
114.2893028846
 10
135.439858774
 20
114.0584284856
 10
135.4093299279
 20
113.8084735577
 10
135.390249399
 20
113.5356219952
 10
135.3768930288
 20
113.2436899038
 10
135.3730769231
 20
112.9288611779
 10
135.3730769231
 20
112.9288611779
 10
135.3730769231
 20
110.0
 10
135.3730769231
 20
110.0
 10
134.5182692308
 20
110.0
 10
134.5182692308
 20
110.0
 10
134.5182692308
 20
116.9605769231
  0
LINE
  5
AC
330
1F
100
AcDbEntity
  8
0
  6
Continuous
 62
     7
100
AcDbLine
 10
150.2139122596
 20
117.0826923077
 30
0.0
 11
150.2138376236
 21
117.0826923077
 31
0.0
  0
ARC
  5
AD
330
1F
100
AcDbEntity
  8
0
  6
Continuous
 62
     7
100
AcDbCircle
 10
150.2100595401
 20
113.4808292032
 30
0.0
 40
2.747055412392712
100
AcDbArc
 50
90.0007636591
 51
89.9992363409
  0
LWPOLYLINE
  5
AE
330
1F
100
AcDbEntity
  8
0
  6
Continuous
 62
     7
100
AcDbPolyline
 90
       86
 70
   128
 43
0.0
 10
155.522108078
 20
116.9605769231
 10
156.3769230769
 20
116.9605769231
 10
156.3769230769
 20
116.9605769231
 10
156.3769230769
 20
115.705078125
 10
156.3769230769
 20
115.705078125
 10
156.657406851
 20
116.0408954327
 10
156.9512469952
 20
116.3290114183
 10
157.2603515625
 20
116.565609976
 10
157.5847205529
 20
116.7545072115
 10
157.9224459135
 20
116.8976111779
 10
158.2754356971
 20
117.0006460337
 10
158.6436899038
 20
117.061703726
 10
159.0253004808
 20
117.0826923077
 10
159.0253004808
 20
117.0826923077
 10
159.4107271635
 20
117.0578876202
 10
159.7732572115
 20
116.9853816106
 10
160.112890625
 20
116.8613581731
 10
160.4296274038
 20
116.6896334135
 10
160.7158353365
 20
116.4759314904
 10
160.9638822115
 20
116.2278846154
 10
161.1699519231
 20
115.9454927885
 10
161.335952524
 20
115.6287560096
 10
161.4046424279
 20
115.4513070913
 10
161.4637920673
 20
115.2490534856
 10
161.5134014423
 20
115.0258112981
 10
161.5553786058
 20
114.7777644231
 10
161.5859074519
 20
114.5068209135
 10
161.6088040865
 20
114.2129807692
 10
161.6240685096
 20
113.8943359375
 10
161.6278846154
 20
113.554702524
 10
161.6278846154
 20
113.554702524
 10
161.6278846154
 20
110.0
 10
161.6278846154
 20
110.0
 10
160.7730769231
 20
110.0
 10
160.7730769231
 20
110.0
 10
160.7730769231
 20
113.27421875
 10
160.7730769231
 20
113.27421875
 10
160.7711688702
 20
113.5585186298
 10
160.7673527644
 20
113.8180138221
 10
160.7597205529
 20
114.0527043269
 10
160.7482722356
 20
114.2644981971
 10
160.7330078125
 20
114.4495793269
 10
160.7158353365
 20
114.6098557692
 10
160.6948467548
 20
114.7472355769
 10
160.6719501202
 20
114.8579026442
 10
160.6719501202
 20
114.8579026442
 10
160.5746394231
 20
115.1784555288
 10
160.4391676683
 20
115.45703125
 10
160.2674429087
 20
115.6917217548
 10
160.0594651442
 20
115.8844350962
 10
159.815234375
 20
116.035171274
 10
159.5366586538
 20
116.1420222356
 10
159.2237379808
 20
116.2068960337
 10
158.8764723558
 20
116.2278846154
 10
158.8764723558
 20
116.2278846154
 10
158.6704026442
 20
116.2202524038
 10
158.4700570913
 20
116.1954477163
 10
158.2735276442
 20
116.1534705529
 10
158.0846304087
 20
116.0962289663
 10
157.8995492788
 20
116.019906851
 10
157.7201923077
 20
115.9302283654
 10
157.5465594952
 20
115.821469351
 10
157.3786508413
 20
115.6974459135
 10
157.2202824519
 20
115.5600661058
 10
157.0771784856
 20
115.4169621394
 10
156.9474308894
 20
115.2643179087
 10
156.8310396635
 20
115.1040414663
 10
156.7299128606
 20
114.9361328125
 10
156.6421424279
 20
114.7605919471
 10
156.5677283654
 20
114.5755108173
 10
156.508578726
 20
114.3847055288
 10
156.508578726
 20
114.3847055288
 10
156.4780498798
 20
114.2435096154
 10
156.4513371394
 20
114.0756009615
 10
156.4284405048
 20
113.8828876202
 10
156.409359976
 20
113.6615534856
 10
156.3960036058
 20
113.4154146635
 10
156.3845552885
 20
113.142563101
 10
156.3788311298
 20
112.8429987981
 10
156.3769230769
 20
112.5167217548
 10
156.3769230769
 20
112.5167217548
 10
156.3769230769
 20
110.0
 10
156.3769230769
 20
110.0
 10
155.5221153846
 20
110.0
 10
155.5221153846
 20
110.0
 10
155.5221153846
 20
116.9605769231
  0
LWPOLYLINE
  5
AF
330
1F
100
AcDbEntity
  8
0
  6
Continuous
 62
     7
100
AcDbPolyline
 90
       36
 70
   128
 43
0.0
 10
163.8830900192
 20
119.8913461538
 10
164.0415715144
 20
119.8779897837
 10
164.1884915865
 20
119.8379206731
 10
164.3239633413
 20
119.7692307692
 10
164.446078726
 20
119.6757361779
 10
164.5491135817
 20
119.5631610577
 10
164.6216195913
 20
119.4372295673
 10
164.6655048077
 20
119.3017578125
 10
164.6807692308
 20
119.1548377404
 10
164.6807692308
 20
119.1548377404
 10
164.6655048077
 20
119.011733774
 10
164.6216195913
 20
118.8781700721
 10
164.5491135817
 20
118.7541466346
 10
164.446078726
 20
118.6415715144
 10
164.3239633413
 20
118.5480769231
 10
164.1884915865
 20
118.4793870192
 10
164.0415715144
 20
118.4393179087
 10
163.883203125
 20
118.4259615385
 10
163.883203125
 20
118.4259615385
 10
163.7267427885
 20
118.4393179087
 10
163.5836388221
 20
118.4793870192
 10
163.4481670673
 20
118.5480769231
 10
163.3260516827
 20
118.6415715144
 10
163.2249248798
 20
118.7541466346
 10
163.1524188702
 20
118.8781700721
 10
163.1085336538
 20
119.011733774
 10
163.0932692308
 20
119.1548377404
 10
163.0932692308
 20
119.1548377404
 10
163.1085336538
 20
119.3017578125
 10
163.1524188702
 20
119.4372295673
 10
163.2249248798
 20
119.5631610577
 10
163.3260516827
 20
119.6757361779
 10
163.4481670673
 20
119.7692307692
 10
163.5836388221
 20
119.8379206731
 10
163.7267427885
 20
119.8779897837
 10
163.883203125
 20
119.8913461538
  0
LWPOLYLINE
  5
B0
330
1F
100
AcDbEntity
  8
0
  6
Continuous
 62
     7
100
AcDbPolyline
 90
        8
 70
   128
 43
0.0
 10
163.4595394135
 20
116.9605769231
 10
164.3144230769
 20
116.9605769231
 10
164.3144230769
 20
116.9605769231
 10
164.3144230769
 20
110.0
 10
164.3144230769
 20
110.0
 10
163.4596153846
 20
110.0
 10
163.4596153846
 20
110.0
 10
163.4596153846
 20
116.9605769231
  0
LWPOLYLINE
  5
B1
330
1F
100
AcDbEntity
  8
0
  6
Continuous
 62
     7
100
AcDbPolyline
 90
       24
 70
   128
 43
0.0
 10
167.2451496124
 20
119.7692307692
 10
168.1
 20
119.7692307692
 10
168.1
 20
119.7692307692
 10
168.1
 20
116.9605769231
 10
168.1
 20
116.9605769231
 10
169.3211538462
 20
116.9605769231
 10
169.3211538462
 20
116.9605769231
 10
169.3211538462
 20
116.1057692308
 10
169.3211538462
 20
116.1057692308
 10
168.1
 20
116.1057692308
 10
168.1
 20
116.1057692308
 10
168.1
 20
110.0
 10
168.1
 20
110.0
 10
167.2451923077
 20
110.0
 10
167.2451923077
 20
110.0
 10
167.2451923077
 20
116.1057692308
 10
167.2451923077
 20
116.1057692308
 10
166.0240384615
 20
116.1057692308
 10
166.0240384615
 20
116.1057692308
 10
166.0240384615
 20
116.9605769231
 10
166.0240384615
 20
116.9605769231
 10
167.2451923077
 20
116.9605769231
 10
167.2451923077
 20
116.9605769231
 10
167.2451923077
 20
119.7692307692
  0
LINE
  5
B2
330
1F
100
AcDbEntity
  8
0
  6
Continuous
 62
     7
100
AcDbLine
 10
174.1485276442
 20
117.0826923077
 30
0.0
 11
174.148440361
 21
117.0826923077
 31
0.0
  0
ARC
  5
B3
330
1F
100
AcDbEntity
  8
0
  6
Continuous
 62
     7
100
AcDbCircle
 10
174.1446686011
 20
113.4808289572
 30
0.0
 40
2.747055658496991
100
AcDbArc
 50
90.0008955512
 51
89.9991044487
  0
LWPOLYLINE
  5
B4
330
1F
100
AcDbEntity
  8
0
  6
Continuous
 62
     7
100
AcDbPolyline
 90
       53
 70
   128
 43
0.0
 10
179.2124509811
 20
116.9605769231
 10
180.0673076923
 20
116.9605769231
 10
180.0673076923
 20
116.9605769231
 10
180.0673076923
 20
115.935952524
 10
180.0673076923
 20
115.935952524
 10
180.2619290865
 20
116.218344351
 10
180.4622746394
 20
116.4587590144
 10
180.6664362981
 20
116.6552884615
 10
180.8763221154
 20
116.8117487981
 10
181.0919320913
 20
116.9300480769
 10
181.313266226
 20
117.0159104567
 10
181.5365084135
 20
117.0655198317
 10
181.7654747596
 20
117.0826923077
 10
181.7654747596
 20
117.0826923077
 10
181.9429236779
 20
117.0674278846
 10
182.1260967548
 20
117.0235426683
 10
182.3149939904
 20
116.9491286058
 10
182.5096153846
 20
116.8441856971
 10
182.5096153846
 20
116.8441856971
 10
182.040234375
 20
116.1038611779
 10
182.040234375
 20
116.1038611779
 10
181.9162109375
 20
116.1572866587
 10
181.8017277644
 20
116.1973557692
 10
181.6967848558
 20
116.2202524038
 10
181.6032902644
 20
116.2278846154
 10
181.6032902644
 20
116.2278846154
 10
181.3991286058
 20
116.2049879808
 10
181.196875
 20
116.1362980769
 10
181.0003455529
 20
116.0218149038
 10
180.8057241587
 20
115.8615384615
 10
180.7122295673
 20
115.7642277644
 10
180.6244591346
 20
115.6535606971
 10
180.5443209135
 20
115.5314453125
 10
180.4679987981
 20
115.3959735577
 10
180.3974008413
 20
115.2471454327
 10
180.3325270433
 20
115.0868689904
 10
180.2733774038
 20
114.9132361779
 10
180.2199519231
 20
114.7281550481
 10
180.2199519231
 20
114.7281550481
 10
180.1836989183
 20
114.5621544471
 10
180.1531700721
 20
114.3579927885
 10
180.1264573317
 20
114.1156700721
 10
180.10546875
 20
113.8351862981
 10
180.088296274
 20
113.5184495192
 10
180.0768479567
 20
113.1635516827
 10
180.0692157452
 20
112.7704927885
 10
180.0673076923
 20
112.3392728365
 10
180.0673076923
 20
112.3392728365
 10
180.0673076923
 20
110.0
 10
180.0673076923
 20
110.0
 10
179.2125
 20
110.0
 10
179.2125
 20
110.0
 10
179.2125
 20
116.9605769231
  0
LWPOLYLINE
  5
B5
330
1F
100
AcDbEntity
  8
0
  6
Continuous
 62
     7
100
AcDbPolyline
 90
       24
 70
   128
 43
0.0
 10
70.2985525131
 20
96.8791666667
 10
74.1791666667
 20
96.8791666667
 10
74.1791666667
 20
96.8791666667
 10
74.1791666667
 20
96.1736111111
 10
74.1791666667
 20
96.1736111111
 10
70.9159722222
 20
96.1736111111
 10
70.9159722222
 20
96.1736111111
 10
70.9159722222
 20
94.0569444444
 10
70.9159722222
 20
94.0569444444
 10
74.1791666667
 20
94.0569444444
 10
74.1791666667
 20
94.0569444444
 10
74.1791666667
 20
93.3513888889
 10
74.1791666667
 20
93.3513888889
 10
70.9159722222
 20
93.3513888889
 10
70.9159722222
 20
93.3513888889
 10
70.9159722222
 20
90.7055555556
 10
70.9159722222
 20
90.7055555556
 10
74.1791666667
 20
90.7055555556
 10
74.1791666667
 20
90.7055555556
 10
74.1791666667
 20
90.0
 10
74.1791666667
 20
90.0
 10
70.2986111111
 20
90.0
 10
70.2986111111
 20
90.0
 10
70.2986111111
 20
96.8791666667
  0
LWPOLYLINE
  5
B6
330
1F
100
AcDbEntity
  8
0
  6
Continuous
 62
     7
100
AcDbPolyline
 90
      145
 70
   128
 43
0.0
 10
81.7638635635
 20
95.6168836806
 10
81.2236979167
 20
95.2034722222
 10
81.2236979167
 20
95.2034722222
 10
81.1065646701
 20
95.3398980035
 10
80.9839192708
 20
95.4680555556
 10
80.8557617188
 20
95.5879448785
 10
80.7220920139
 20
95.6995659722
 10
80.5815321181
 20
95.8015407986
 10
80.4368381076
 20
95.8952473958
 10
80.2852539062
 20
95.9806857639
 10
80.1281575521
 20
96.0578559028
 10
79.8001844618
 20
96.1860134549
 10
79.4570529514
 20
96.2769639757
 10
79.0987630208
 20
96.3320855035
 10
78.7239366319
 20
96.35
 10
78.7239366319
 20
96.35
 10
78.5172309028
 20
96.3444878472
 10
78.31328125
 20
96.3251953125
 10
78.1134657118
 20
96.2948784722
 10
77.9191623264
 20
96.2521592882
 10
77.7262369792
 20
96.1970377604
 10
77.5388237847
 20
96.1308919271
 10
77.3555447049
 20
96.0509657118
 10
77.1750217014
 20
95.960015191
 10
77.0013888889
 20
95.8580403646
 10
76.8387803819
 20
95.747797309
 10
76.6858181424
 20
95.6292860243
 10
76.5425021701
 20
95.5025065104
 10
76.4088324653
 20
95.3674587674
 10
76.286187066
 20
95.2241427951
 10
76.173187934
 20
95.0711805556
 10
76.0698350694
 20
94.911328125
 10
75.9775065104
 20
94.7445855035
 10
75.8989583333
 20
94.5723307292
 10
75.8314344618
 20
94.3959418403
 10
75.776312934
 20
94.2126627604
 10
75.73359375
 20
94.025249566
 10
75.7032769097
 20
93.8337022569
 10
75.683984375
 20
93.6352647569
 10
75.6784722222
 20
93.4326931424
 10
75.6784722222
 20
93.4326931424
 10
75.6922526042
 20
93.1281467014
 10
75.73359375
 20
92.8373806424
 10
75.8011176215
 20
92.5590169271
 10
75.8975802951
 20
92.2944335938
 10
76.0202256944
 20
92.040874566
 10
76.1718098958
 20
91.8010959201
 10
76.3495768229
 20
91.5737196181
 10
76.5549045139
 20
91.3601236979
 10
76.7809027778
 20
91.1658203125
 10
77.0220594618
 20
90.9963216146
 10
77.2769965278
 20
90.8543836806
 10
77.5457139757
 20
90.737250434
 10
77.8295898437
 20
90.6462999132
 10
78.1272460937
 20
90.5815321181
 10
78.4400607639
 20
90.5415690104
 10
78.766655816
 20
90.5291666667
 10
78.766655816
 20
90.5291666667
 10
79.1263237847
 20
90.5470811632
 10
79.4708333333
 20
90.6008246528
 10
79.8001844618
 20
90.6903971354
 10
80.1157552083
 20
90.8157986111
 10
80.4147894965
 20
90.9770290799
 10
80.7000434028
 20
91.1740885417
 10
80.9687608507
 20
91.4069769965
 10
81.2236979167
 20
91.6756944444
 10
81.2236979167
 20
91.6756944444
 10
81.7638888889
 20
91.2664171007
 10
81.7638888889
 20
91.2664171007
 10
81.6315972222
 20
91.0996744792
 10
81.4910373264
 20
90.9412000868
 10
81.3435872396
 20
90.79375
 10
81.1878689236
 20
90.6559461806
 10
81.0238823785
 20
90.5264105903
 10
80.8516276042
 20
90.4078993056
 10
80.6711046007
 20
90.2990342882
 10
80.4836914063
 20
90.1998155382
 10
80.2893880208
 20
90.1116210938
 10
80.0895724826
 20
90.0358289931
 10
79.8842447917
 20
89.9710611979
 10
79.6720269097
 20
89.9173177083
 10
79.4556749132
 20
89.8759765625
 10
79.2324327257
 20
89.8470377604
 10
79.0050564236
 20
89.8291232639
 10
78.7707899306
 20
89.8236111111
 10
78.7707899306
 20
89.8236111111
 10
78.5489257813
 20
89.8277452257
 10
78.3325737847
 20
89.8429036458
 10
78.1231119792
 20
89.8663302951
 10
77.9191623264
 20
89.8994032118
 10
77.7207248264
 20
89.9407443576
 10
77.5291775174
 20
89.993109809
 10
77.3431423611
 20
90.0537434896
 10
77.1626193576
 20
90.1240234375
 10
76.9876085069
 20
90.2039496528
 10
76.8194878472
 20
90.2935221354
 10
76.6568793403
 20
90.3927408854
 10
76.4997829861
 20
90.5002278646
 10
76.3495768229
 20
90.6173611111
 10
76.2048828125
 20
90.744140625
 10
76.0657009549
 20
90.8805664063
 10
75.9334092882
 20
91.0266384549
 10
75.9334092882
 20
91.0266384549
 10
75.7294596354
 20
91.2870876736
 10
75.5516927083
 20
91.5613172743
 10
75.4014865451
 20
91.8479492188
 10
75.2788411458
 20
92.1483615451
 10
75.1837565104
 20
92.4611762153
 10
75.1162326389
 20
92.7877712674
 10
75.0748914931
 20
93.1267686632
 10
75.0611111111
 20
93.479546441
 10
75.0611111111
 20
93.479546441
 10
75.0776475694
 20
93.8502387153
 10
75.1272569444
 20
94.2057725694
 10
75.2099392361
 20
94.5461480035
 10
75.3256944444
 20
94.8713650174
 10
75.4731445312
 20
95.1814236111
 10
75.6550455729
 20
95.4777018229
 10
75.8686414931
 20
95.7574435764
 10
76.1166883681
 20
96.0234049479
 10
76.3895399306
 20
96.2659396701
 10
76.6775499132
 20
96.4754014757
 10
76.9834743924
 20
96.6517903646
 10
77.3059353299
 20
96.7978624132
 10
77.6449327257
 20
96.9108615451
 10
78.0004665799
 20
96.9907877604
 10
78.3739149306
 20
97.0390190972
 10
78.7625217014
 20
97.0555555556
 10
78.7625217014
 20
97.0555555556
 10
78.9995442708
 20
97.0500434028
 10
79.2310546875
 20
97.0321289063
 10
79.4556749132
 20
97.001812066
 10
79.6747829861
 20
96.9604709201
 10
79.8883789062
 20
96.9081054688
 10
80.0964626736
 20
96.8419596354
 10
80.2990342882
 20
96.7647894965
 10
80.4947157118
 20
96.6765950521
 10
80.6835069444
 20
96.5773763021
 10
80.8640299479
 20
96.4685112847
 10
81.0362847222
 20
96.35
 10
81.1988932292
 20
96.2232204861
 10
81.3532335069
 20
96.0854166667
 10
81.4993055556
 20
95.9393446181
 10
81.6357313368
 20
95.7822482639
 10
81.7638888889
 20
95.6168836806
  0
LWPOLYLINE
  5
B7
330
1F
100
AcDbEntity
  8
0
  6
Continuous
 62
     7
100
AcDbPolyline
 90
      169
 70
   128
 43
0.0
 10
89.6131396294
 20
95.705078125
 10
89.0840277778
 20
95.2034722222
 10
89.0840277778
 20
95.2034722222
 10
88.7918836806
 20
95.4680555556
 10
88.4845811632
 20
95.6995659722
 10
88.1648763021
 20
95.8952473958
 10
87.8300130208
 20
96.0578559028
 10
87.491015625
 20
96.1860134549
 10
87.1575303819
 20
96.2769639757
 10
86.8268012153
 20
96.3320855035
 10
86.5015842014
 20
96.35
 10
86.5015842014
 20
96.35
 10
86.3017686632
 20
96.3444878472
 10
86.1033311632
 20
96.3251953125
 10
85.9090277778
 20
96.2948784722
 10
85.7161024306
 20
96.2521592882
 10
85.5245551215
 20
96.1970377604
 10
85.3371419271
 20
96.1295138889
 10
85.1511067708
 20
96.0495876736
 10
84.967827691
 20
95.9572591146
 10
84.7914388021
 20
95.8552842882
 10
84.6246961806
 20
95.7436631944
 10
84.4675998264
 20
95.6237738715
 10
84.3215277778
 20
95.4942382813
 10
84.1864800347
 20
95.3564344618
 10
84.0597005208
 20
95.2103624132
 10
83.9439453125
 20
95.0546440972
 10
83.8392144097
 20
94.8906575521
 10
83.7455078125
 20
94.7211588542
 10
83.664203559
 20
94.5502821181
 10
83.5953016493
 20
94.3752712674
 10
83.5401801215
 20
94.1988823785
 10
83.4960828993
 20
94.0211154514
 10
83.4643880208
 20
93.8392144097
 10
83.4464735243
 20
93.6559353299
 10
83.4395833333
 20
93.4699001736
 10
83.4395833333
 20
93.4699001736
 10
83.4464735243
 20
93.2797309028
 10
83.465766059
 20
93.0909396701
 10
83.5002170139
 20
92.9049045139
 10
83.5470703125
 20
92.721625434
 10
83.6063259549
 20
92.5397243924
 10
83.6793619792
 20
92.3605794271
 10
83.7661783854
 20
92.1841905382
 10
83.8667751736
 20
92.0105577257
 10
83.9783962674
 20
91.842437066
 10
84.1010416667
 20
91.6839626736
 10
84.2333333333
 20
91.5337565104
 10
84.3752712674
 20
91.3945746528
 10
84.5282335069
 20
91.2622829861
 10
84.6908420139
 20
91.141015625
 10
84.8644748264
 20
91.0280164931
 10
85.0477539063
 20
90.9246636285
 10
85.2379231771
 20
90.8323350694
 10
85.4336046007
 20
90.751030816
 10
85.6334201389
 20
90.6835069444
 10
85.8373697917
 20
90.6283854167
 10
86.0468315972
 20
90.5842881944
 10
86.2604275174
 20
90.5539713542
 10
86.4781575521
 20
90.5346788194
 10
86.7000217014
 20
90.5291666667
 10
86.7000217014
 20
90.5291666667
 10
86.9673611111
 20
90.538812934
 10
87.2236762153
 20
90.5663736979
 10
87.4703450521
 20
90.6118489583
 10
87.7059895833
 20
90.6766167535
 10
87.930609809
 20
90.7592990451
 10
88.1455837674
 20
90.8598958333
 10
88.3495334201
 20
90.9797851563
 10
88.5438368056
 20
91.1175889757
 10
88.7229817708
 20
91.2705512153
 10
88.8828342014
 20
91.4345377604
 10
89.0233940972
 20
91.6095486111
 10
89.1446614583
 20
91.7942057292
 10
89.2466362847
 20
91.991265191
 10
89.3293185764
 20
92.1979709201
 10
89.3927083333
 20
92.4170789931
 10
89.4368055556
 20
92.6458333333
 10
89.4368055556
 20
92.6458333333
 10
87.14375
 20
92.6458333333
 10
87.14375
 20
92.6458333333
 10
87.14375
 20
93.3513888889
 10
87.14375
 20
93.3513888889
 10
90.0541666667
 20
93.3513888889
 10
90.0541666667
 20
93.3513888889
 10
90.0376302083
 20
92.9572699653
 10
89.9921549479
 20
92.5824435764
 10
89.9177408854
 20
92.2296657986
 10
89.815766059
 20
91.8975585938
 10
89.6848524306
 20
91.5861219618
 10
89.525
 20
91.2953559028
 10
89.3362087674
 20
91.0266384549
 10
89.1198567708
 20
90.7772135417
 10
88.8787000868
 20
90.5539713542
 10
88.6182508681
 20
90.3596679688
 10
88.3385091146
 20
90.1956814236
 10
88.0394748264
 20
90.0620117188
 10
87.7197699653
 20
89.957280816
 10
87.3821506076
 20
89.8828667535
 10
87.0238606771
 20
89.8387695313
 10
86.6462782118
 20
89.8236111111
 10
86.6462782118
 20
89.8236111111
 10
86.4133897569
 20
89.8291232639
 10
86.1873914931
 20
89.844281684
 10
85.9682834201
 20
89.8690863715
 10
85.7546875
 20
89.9049153646
 10
85.5466037326
 20
89.950390625
 10
85.3454101563
 20
90.006890191
 10
85.1497287326
 20
90.0730360243
 10
84.9595594618
 20
90.148828125
 10
84.7762803819
 20
90.2356445313
 10
84.5998914931
 20
90.3321072049
 10
84.4290147569
 20
90.4382161458
 10
84.2636501736
 20
90.5553493924
 10
84.1051757813
 20
90.6821289063
 10
83.9522135417
 20
90.8199327257
 10
83.8061414931
 20
90.9673828125
 10
83.6655815972
 20
91.1244791667
 10
83.6655815972
 20
91.1244791667
 10
83.4685221354
 20
91.3794162326
 10
83.2962673611
 20
91.6453776042
 10
83.1515733507
 20
91.9196072049
 10
83.033062066
 20
92.2048611111
 10
82.9407335069
 20
92.4997612847
 10
82.8745876736
 20
92.8043077257
 10
82.8360026042
 20
93.118500434
 10
82.8222222222
 20
93.4423394097
 10
82.8222222222
 20
93.4423394097
 10
82.8291124132
 20
93.6848741319
 10
82.8525390625
 20
93.9232747396
 10
82.8897460938
 20
94.1575412326
 10
82.9421115451
 20
94.3862955729
 10
83.0096354167
 20
94.6122938368
 10
83.0923177083
 20
94.8327799479
 10
83.1901584201
 20
95.0505099826
 10
83.3031575521
 20
95.2627278646
 10
83.429937066
 20
95.4680555556
 10
83.5663628472
 20
95.6609809028
 10
83.7151909722
 20
95.8428819444
 10
83.8750434028
 20
96.0137586806
 10
84.0459201389
 20
96.1722330729
 10
84.2278211806
 20
96.3196831597
 10
84.4207465278
 20
96.456108941
 10
84.6246961806
 20
96.5801323785
 10
84.8382921007
 20
96.6917534722
 10
85.0574001736
 20
96.7882161458
 10
85.2847764757
 20
96.8695203993
 10
85.5190429688
 20
96.9370442708
 10
85.7588216146
 20
96.988031684
 10
86.0068684896
 20
97.0252387153
 10
86.2604275174
 20
97.0486653646
 10
86.5222547743
 20
97.0555555556
 10
86.5222547743
 20
97.0555555556
 10
86.7358506944
 20
97.0500434028
 10
86.9453125
 20
97.0348849826
 10
87.1520182292
 20
97.0100802951
 10
87.3559678819
 20
96.9756293403
 10
87.5557834201
 20
96.9301540799
 10
87.7528428819
 20
96.8750325521
 10
87.9471462674
 20
96.8102647569
 10
88.1373155382
 20
96.7344726563
 10
88.3261067708
 20
96.64765625
 10
88.5135199653
 20
96.5498155382
 10
88.6995551215
 20
96.4395724826
 10
88.8842122396
 20
96.3169270833
 10
89.0688693576
 20
96.1818793403
 10
89.2507703993
 20
96.0344292535
 10
89.432671441
 20
95.8759548611
 10
89.6131944444
 20
95.705078125
  0
LWPOLYLINE
  5
B8
330
1F
100
AcDbEntity
  8
0
  6
Continuous
 62
     7
100
AcDbPolyline
 90
       24
 70
   128
 43
0.0
 10
149.8135328293
 20
96.8791666667
 10
153.6940972222
 20
96.8791666667
 10
153.6940972222
 20
96.8791666667
 10
153.6940972222
 20
96.1736111111
 10
153.6940972222
 20
96.1736111111
 10
150.4309027778
 20
96.1736111111
 10
150.4309027778
 20
96.1736111111
 10
150.4309027778
 20
94.0569444444
 10
150.4309027778
 20
94.0569444444
 10
153.6940972222
 20
94.0569444444
 10
153.6940972222
 20
94.0569444444
 10
153.6940972222
 20
93.3513888889
 10
153.6940972222
 20
93.3513888889
 10
150.4309027778
 20
93.3513888889
 10
150.4309027778
 20
93.3513888889
 10
150.4309027778
 20
90.7055555556
 10
150.4309027778
 20
90.7055555556
 10
153.6940972222
 20
90.7055555556
 10
153.6940972222
 20
90.7055555556
 10
153.6940972222
 20
90.0
 10
153.6940972222
 20
90.0
 10
149.8135416667
 20
90.0
 10
149.8135416667
 20
90.0
 10
149.8135416667
 20
96.8791666667
  0
LWPOLYLINE
  5
B9
330
1F
100
AcDbEntity
  8
0
  6
Continuous
 62
     7
100
AcDbPolyline
 90
       26
 70
   128
 43
0.0
 10
154.5759439468
 20
90.0
 10
155.4841688368
 20
96.8791666667
 10
155.4841688368
 20
96.8791666667
 10
155.5723632813
 20
96.8791666667
 10
155.5723632813
 20
96.8791666667
 10
158.4125
 20
91.2347222222
 10
158.4125
 20
91.2347222222
 10
161.2457465278
 20
96.8791666667
 10
161.2457465278
 20
96.8791666667
 10
161.3353190104
 20
96.8791666667
 10
161.3353190104
 20
96.8791666667
 10
162.2489583333
 20
90.0
 10
162.2489583333
 20
90.0
 10
161.6288411458
 20
90.0
 10
161.6288411458
 20
90.0
 10
160.9701388889
 20
94.9499131944
 10
160.9701388889
 20
94.9499131944
 10
158.4869140625
 20
90.0
 10
158.4869140625
 20
90.0
 10
158.3477322049
 20
90.0
 10
158.3477322049
 20
90.0
 10
155.8548611111
 20
94.9609375
 10
155.8548611111
 20
94.9609375
 10
155.1975368924
 20
90.0
 10
155.1975368924
 20
90.0
 10
154.5760416667
 20
90.0
  0
LWPOLYLINE
  5
BA
330
1F
100
AcDbEntity
  8
0
  6
Continuous
 62
     7
100
AcDbPolyline
 90
      169
 70
   128
 43
0.0
 10
170.0981855392
 20
95.705078125
 10
169.5690972222
 20
95.2034722222
 10
169.5690972222
 20
95.2034722222
 10
169.276953125
 20
95.4680555556
 10
168.9696506076
 20
95.6995659722
 10
168.6499457465
 20
95.8952473958
 10
168.3150824653
 20
96.0578559028
 10
167.9760850694
 20
96.1860134549
 10
167.6425998264
 20
96.2769639757
 10
167.3118706597
 20
96.3320855035
 10
166.9866536458
 20
96.35
 10
166.9866536458
 20
96.35
 10
166.7868381076
 20
96.3444878472
 10
166.5884006076
 20
96.3251953125
 10
166.3940972222
 20
96.2948784722
 10
166.201171875
 20
96.2521592882
 10
166.009624566
 20
96.1970377604
 10
165.8222113715
 20
96.1295138889
 10
165.6361762153
 20
96.0495876736
 10
165.4528971354
 20
95.9572591146
 10
165.2765082465
 20
95.8552842882
 10
165.109765625
 20
95.7436631944
 10
164.9526692708
 20
95.6237738715
 10
164.8065972222
 20
95.4942382813
 10
164.6715494792
 20
95.3564344618
 10
164.5447699653
 20
95.2103624132
 10
164.4290147569
 20
95.0546440972
 10
164.3242838542
 20
94.8906575521
 10
164.2305772569
 20
94.7211588542
 10
164.1492730035
 20
94.5502821181
 10
164.0803710938
 20
94.3752712674
 10
164.025249566
 20
94.1988823785
 10
163.9811523438
 20
94.0211154514
 10
163.9494574653
 20
93.8392144097
 10
163.9315429688
 20
93.6559353299
 10
163.9246527778
 20
93.4699001736
 10
163.9246527778
 20
93.4699001736
 10
163.9315429688
 20
93.2797309028
 10
163.9508355035
 20
93.0909396701
 10
163.9852864583
 20
92.9049045139
 10
164.0321397569
 20
92.721625434
 10
164.0913953993
 20
92.5397243924
 10
164.1644314236
 20
92.3605794271
 10
164.2512478299
 20
92.1841905382
 10
164.3518446181
 20
92.0105577257
 10
164.4634657118
 20
91.842437066
 10
164.5861111111
 20
91.6839626736
 10
164.7184027778
 20
91.5337565104
 10
164.8603407118
 20
91.3945746528
 10
165.0133029514
 20
91.2622829861
 10
165.1759114583
 20
91.141015625
 10
165.3495442708
 20
91.0280164931
 10
165.5328233507
 20
90.9246636285
 10
165.7229926215
 20
90.8323350694
 10
165.9186740451
 20
90.751030816
 10
166.1184895833
 20
90.6835069444
 10
166.3224392361
 20
90.6283854167
 10
166.5319010417
 20
90.5842881944
 10
166.7454969618
 20
90.5539713542
 10
166.9632269965
 20
90.5346788194
 10
167.1850911458
 20
90.5291666667
 10
167.1850911458
 20
90.5291666667
 10
167.4524305556
 20
90.538812934
 10
167.7087456597
 20
90.5663736979
 10
167.9554144965
 20
90.6118489583
 10
168.1910590278
 20
90.6766167535
 10
168.4156792535
 20
90.7592990451
 10
168.6306532118
 20
90.8598958333
 10
168.8346028646
 20
90.9797851563
 10
169.02890625
 20
91.1175889757
 10
169.2080512153
 20
91.2705512153
 10
169.3679036458
 20
91.4345377604
 10
169.5084635417
 20
91.6095486111
 10
169.6297309028
 20
91.7942057292
 10
169.7317057292
 20
91.991265191
 10
169.8143880208
 20
92.1979709201
 10
169.8777777778
 20
92.4170789931
 10
169.921875
 20
92.6458333333
 10
169.921875
 20
92.6458333333
 10
167.6288194444
 20
92.6458333333
 10
167.6288194444
 20
92.6458333333
 10
167.6288194444
 20
93.3513888889
 10
167.6288194444
 20
93.3513888889
 10
170.5392361111
 20
93.3513888889
 10
170.5392361111
 20
93.3513888889
 10
170.5226996528
 20
92.9572699653
 10
170.4772243924
 20
92.5824435764
 10
170.4028103299
 20
92.2296657986
 10
170.3008355035
 20
91.8975585938
 10
170.169921875
 20
91.5861219618
 10
170.0100694444
 20
91.2953559028
 10
169.8212782118
 20
91.0266384549
 10
169.6049262153
 20
90.7772135417
 10
169.3637695313
 20
90.5539713542
 10
169.1033203125
 20
90.3596679688
 10
168.823578559
 20
90.1956814236
 10
168.5245442708
 20
90.0620117188
 10
168.2048394097
 20
89.957280816
 10
167.8672200521
 20
89.8828667535
 10
167.5089301215
 20
89.8387695313
 10
167.1313476563
 20
89.8236111111
 10
167.1313476563
 20
89.8236111111
 10
166.8984592014
 20
89.8291232639
 10
166.6724609375
 20
89.844281684
 10
166.4533528646
 20
89.8690863715
 10
166.2397569444
 20
89.9049153646
 10
166.0316731771
 20
89.950390625
 10
165.8304796007
 20
90.006890191
 10
165.6347981771
 20
90.0730360243
 10
165.4446289063
 20
90.148828125
 10
165.2613498264
 20
90.2356445313
 10
165.0849609375
 20
90.3321072049
 10
164.9140842014
 20
90.4382161458
 10
164.7487196181
 20
90.5553493924
 10
164.5902452257
 20
90.6821289063
 10
164.4372829861
 20
90.8199327257
 10
164.2912109375
 20
90.9673828125
 10
164.1506510417
 20
91.1244791667
 10
164.1506510417
 20
91.1244791667
 10
163.9535915799
 20
91.3794162326
 10
163.7813368056
 20
91.6453776042
 10
163.6366427951
 20
91.9196072049
 10
163.5181315104
 20
92.2048611111
 10
163.4258029514
 20
92.4997612847
 10
163.3596571181
 20
92.8043077257
 10
163.3210720486
 20
93.118500434
 10
163.3072916667
 20
93.4423394097
 10
163.3072916667
 20
93.4423394097
 10
163.3141818576
 20
93.6848741319
 10
163.3376085069
 20
93.9232747396
 10
163.3748155382
 20
94.1575412326
 10
163.4271809896
 20
94.3862955729
 10
163.4947048611
 20
94.6122938368
 10
163.5773871528
 20
94.8327799479
 10
163.6752278646
 20
95.0505099826
 10
163.7882269965
 20
95.2627278646
 10
163.9150065104
 20
95.4680555556
 10
164.0514322917
 20
95.6609809028
 10
164.2002604167
 20
95.8428819444
 10
164.3601128472
 20
96.0137586806
 10
164.5309895833
 20
96.1722330729
 10
164.712890625
 20
96.3196831597
 10
164.9058159722
 20
96.456108941
 10
165.109765625
 20
96.5801323785
 10
165.3233615451
 20
96.6917534722
 10
165.5424696181
 20
96.7882161458
 10
165.7698459201
 20
96.8695203993
 10
166.0041124132
 20
96.9370442708
 10
166.243891059
 20
96.988031684
 10
166.491937934
 20
97.0252387153
 10
166.7454969618
 20
97.0486653646
 10
167.0073242188
 20
97.0555555556
 10
167.0073242188
 20
97.0555555556
 10
167.2209201389
 20
97.0500434028
 10
167.4303819444
 20
97.0348849826
 10
167.6370876736
 20
97.0100802951
 10
167.8410373264
 20
96.9756293403
 10
168.0408528646
 20
96.9301540799
 10
168.2379123264
 20
96.8750325521
 10
168.4322157118
 20
96.8102647569
 10
168.6223849826
 20
96.7344726563
 10
168.8111762153
 20
96.64765625
 10
168.9985894097
 20
96.5498155382
 10
169.184624566
 20
96.4395724826
 10
169.369281684
 20
96.3169270833
 10
169.5539388021
 20
96.1818793403
 10
169.7358398438
 20
96.0344292535
 10
169.9177408854
 20
95.8759548611
 10
170.0982638889
 20
95.705078125
  0
POINT
  5
BB
330
1F
100
AcDbEntity
  8
0
  6
Continuous
 62
     7
100
AcDbPoint
 10
80.0
 20
50.0
 30
0.0
  0
POINT
  5
BD
330
1F
100
AcDbEntity
  8
0
  6
Continuous
 62
     7
100
AcDbPoint
 10
80.0
 20
90.0
 30
0.0
  0
POINT
  5
BE
330
1F
100
AcDbEntity
  8
0
  6
Continuous
 62
     7
100
AcDbPoint
 10
160.0
 20
90.0
 30
0.0
  0
CIRCLE
  5
C0
330
1F
100
AcDbEntity
  8
0
  6
Continuous
 62
     7
370
    25
100
AcDbCircle
 10
80.0
 20
80.0
 30
0.0
 40
3.000000000000014
  0
CIRCLE
  5
C1
330
1F
100
AcDbEntity
  8
0
  6
Continuous
 62
     7
370
    25
100
AcDbCircle
 10
80.0
 20
40.0
 30
0.0
 40
2.999999999999986
  0
CIRCLE
  5
C2
330
1F
100
AcDbEntity
  8
0
  6
Continuous
 62
     7
370
    25
100
AcDbCircle
 10
160.0
 20
40.0
 30
0.0
 40
3.0
  0
CIRCLE
  5
C3
330
1F
100
AcDbEntity
  8
0
  6
Continuous
 62
     7
370
    25
100
AcDbCircle
 10
160.0
 20
80.0
 30
0.0
 40
3.0
  0
LINE
  5
EB
330
1F
100
AcDbEntity
  8
0
  6
Continuous
 62
     7
370
    25
100
AcDbLine
 10
104.0
 20
140.0
 30
0.0
 11
156.0
 21
140.0
 31
0.0
  0
LINE
  5
EC
330
1F
100
AcDbEntity
  8
0
  6
Continuous
 62
     7
370
    25
100
AcDbLine
 10
40.0
 20
55.0
 30
0.0
 11
40.0
 21
85.0
 31
0.0
  0
LINE
  5
ED
330
1F
100
AcDbEntity
  8
0
  6
Continuous
 62
     7
370
    25
100
AcDbLine
 10
40.0
 20
85.0
 30
0.0
 11
25.0
 21
85.0
 31
0.0
  0
LINE
  5
EE
330
1F
100
AcDbEntity
  8
0
  6
Continuous
 62
     7
370
    25
100
AcDbLine
 10
25.0
 20
85.0
 30
0.0
 11
25.0
 21
55.0
 31
0.0
  0
LINE
  5
EF
330
1F
100
AcDbEntity
  8
0
  6
Continuous
 62
     7
370
    25
100
AcDbLine
 10
25.0
 20
55.0
 30
0.0
 11
40.0
 21
55.0
 31
0.0
  0
LINE
  5
F0
330
1F
100
AcDbEntity
  8
0
  6
Continuous
 62
     7
370
    25
100
AcDbLine
 10
104.0
 20
150.0
 30
0.0
 11
52.0
 21
150.0
 31
0.0
  0
LINE
  5
F1
330
1F
100
AcDbEntity
  8
0
  6
Continuous
 62
     7
370
    25
100
AcDbLine
 10
104.0
 20
140.0
 30
0.0
 11
104.0
 21
150.0
 31
0.0
  0
LINE
  5
F2
330
1F
100
AcDbEntity
  8
0
  6
Continuous
 62
     7
370
    25
100
AcDbLine
 10
156.0
 20
150.0
 30
0.0
 11
156.0
 21
140.0
 31
0.0
  0
LINE
  5
F3
330
1F
100
AcDbEntity
  8
0
  6
Continuous
 62
     7
370
    25
100
AcDbLine
 10
208.0
 20
150.0
 30
0.0
 11
156.0
 21
150.0
 31
0.0
  0
LINE
  5
F4
330
1F
100
AcDbEntity
  8
0
  6
Continuous
 62
     7
370
    25
100
AcDbLine
 10
208.0
 20
145.0
 30
0.0
 11
208.0
 21
150.0
 31
0.0
  0
LINE
  5
F5
330
1F
100
AcDbEntity
  8
0
  6
Continuous
 62
     7
370
    25
100
AcDbLine
 10
255.0
 20
145.0
 30
0.0
 11
208.0
 21
145.0
 31
0.0
  0
LINE
  5
F6
330
1F
100
AcDbEntity
  8
0
  6
Continuous
 62
     7
370
    25
100
AcDbLine
 10
255.0
 20
120.0
 30
0.0
 11
255.0
 21
145.0
 31
0.0
  0
LINE
  5
F7
330
1F
100
AcDbEntity
  8
0
  6
Continuous
 62
     7
370
    25
100
AcDbLine
 10
260.0
 20
120.0
 30
0.0
 11
255.0
 21
120.0
 31
0.0
  0
LINE
  5
F8
330
1F
100
AcDbEntity
  8
0
  6
Continuous
 62
     7
370
    25
100
AcDbLine
 10
260.0
 20
90.0
 30
0.0
 11
260.0
 21
120.0
 31
0.0
  0
LINE
  5
F9
330
1F
100
AcDbEntity
  8
0
  6
Continuous
 62
     7
370
    25
100
AcDbLine
 10
255.0
 20
90.0
 30
0.0
 11
260.0
 21
90.0
 31
0.0
  0
LINE
  5
FA
330
1F
100
AcDbEntity
  8
0
  6
Continuous
 62
     7
370
    25
100
AcDbLine
 10
255.0
 20
60.0
 30
0.0
 11
255.0
 21
90.0
 31
0.0
  0
LINE
  5
FB
330
1F
100
AcDbEntity
  8
0
  6
Continuous
 62
     7
370
    25
100
AcDbLine
 10
260.0
 20
60.0
 30
0.0
 11
255.0
 21
60.0
 31
0.0
  0
LINE
  5
FC
330
1F
100
AcDbEntity
  8
0
  6
Continuous
 62
     7
370
    25
100
AcDbLine
 10
260.0
 20
30.0
 30
0.0
 11
260.0
 21
60.0
 31
0.0
  0
LINE
  5
FD
330
1F
100
AcDbEntity
  8
0
  6
Continuous
 62
     7
370
    25
100
AcDbLine
 10
255.0
 20
30.0
 30
0.0
 11
260.0
 21
30.0
 31
0.0
  0
LINE
  5
FE
330
1F
100
AcDbEntity
  8
0
  6
Continuous
 62
     7
370
    25
100
AcDbLine
 10
255.0
 20
5.0
 30
0.0
 11
255.0
 21
30.0
 31
0.0
  0
LINE
  5
FF
330
1F
100
AcDbEntity
  8
0
  6
Continuous
 62
     7
370
    25
100
AcDbLine
 10
208.0
 20
5.0
 30
0.0
 11
255.0
 21
5.0
 31
0.0
  0
LINE
  5
100
330
1F
100
AcDbEntity
  8
0
  6
Continuous
 62
     7
370
    25
100
AcDbLine
 10
208.0
 20
0.0
 30
0.0
 11
208.0
 21
5.0
 31
0.0
  0
LINE
  5
101
330
1F
100
AcDbEntity
  8
0
  6
Continuous
 62
     7
370
    25
100
AcDbLine
 10
156.0
 20
0.0
 30
0.0
 11
208.0
 21
0.0
 31
0.0
  0
LINE
  5
102
330
1F
100
AcDbEntity
  8
0
  6
Continuous
 62
     7
370
    25
100
AcDbLine
 10
156.0
 20
5.0
 30
0.0
 11
156.0
 21
0.0
 31
0.0
  0
LINE
  5
103
330
1F
100
AcDbEntity
  8
0
  6
Continuous
 62
     7
370
    25
100
AcDbLine
 10
104.0
 20
5.0
 30
0.0
 11
156.0
 21
5.0
 31
0.0
  0
LINE
  5
104
330
1F
100
AcDbEntity
  8
0
  6
Continuous
 62
     7
370
    25
100
AcDbLine
 10
104.0
 20
0.0
 30
0.0
 11
104.0
 21
5.0
 31
0.0
  0
LINE
  5
105
330
1F
100
AcDbEntity
  8
0
  6
Continuous
 62
     7
370
    25
100
AcDbLine
 10
52.0
 20
0.0
 30
0.0
 11
104.0
 21
0.0
 31
0.0
  0
LINE
  5
106
330
1F
100
AcDbEntity
  8
0
  6
Continuous
 62
     7
370
    25
100
AcDbLine
 10
52.0
 20
5.0
 30
0.0
 11
52.0
 21
0.0
 31
0.0
  0
LINE
  5
107
330
1F
100
AcDbEntity
  8
0
  6
Continuous
 62
     7
370
    25
100
AcDbLine
 10
5.0
 20
5.0
 30
0.0
 11
52.0
 21
5.0
 31
0.0
  0
LINE
  5
108
330
1F
100
AcDbEntity
  8
0
  6
Continuous
 62
     7
370
    25
100
AcDbLine
 10
5.0
 20
30.0
 30
0.0
 11
5.0
 21
5.0
 31
0.0
  0
LINE
  5
109
330
1F
100
AcDbEntity
  8
0
  6
Continuous
 62
     7
370
    25
100
AcDbLine
 10
0.0
 20
30.0
 30
0.0
 11
5.0
 21
30.0
 31
0.0
  0
LINE
  5
10A
330
1F
100
AcDbEntity
  8
0
  6
Continuous
 62
     7
370
    25
100
AcDbLine
 10
0.0
 20
60.0
 30
0.0
 11
0.0
 21
30.0
 31
0.0
  0
LINE
  5
10B
330
1F
100
AcDbEntity
  8
0
  6
Continuous
 62
     7
370
    25
100
AcDbLine
 10
5.0
 20
60.0
 30
0.0
 11
0.0
 21
60.0
 31
0.0
  0
LINE
  5
10C
330
1F
100
AcDbEntity
  8
0
  6
Continuous
 62
     7
370
    25
100
AcDbLine
 10
5.0
 20
90.0
 30
0.0
 11
5.0
 21
60.0
 31
0.0
  0
LINE
  5
10D
330
1F
100
AcDbEntity
  8
0
  6
Continuous
 62
     7
370
    25
100
AcDbLine
 10
0.0
 20
90.0
 30
0.0
 11
5.0
 21
90.0
 31
0.0
  0
LINE
  5
10E
330
1F
100
AcDbEntity
  8
0
  6
Continuous
 62
     7
370
    25
100
AcDbLine
 10
0.0
 20
120.0
 30
0.0
 11
0.0
 21
90.0
 31
0.0
  0
LINE
  5
10F
330
1F
100
AcDbEntity
  8
0
  6
Continuous
 62
     7
370
    25
100
AcDbLine
 10
5.0
 20
120.0
 30
0.0
 11
0.0
 21
120.0
 31
0.0
  0
LINE
  5
110
330
1F
100
AcDbEntity
  8
0
  6
Continuous
 62
     7
370
    25
100
AcDbLine
 10
5.0
 20
145.0
 30
0.0
 11
5.0
 21
120.0
 31
0.0
  0
LINE
  5
111
330
1F
100
AcDbEntity
  8
0
  6
Continuous
 62
     7
370
    25
100
AcDbLine
 10
52.0
 20
145.0
 30
0.0
 11
5.0
 21
145.0
 31
0.0
  0
LINE
  5
112
330
1F
100
AcDbEntity
  8
0
  6
Continuous
 62
     7
370
    25
100
AcDbLine
 10
52.0
 20
150.0
 30
0.0
 11
52.0
 21
145.0
 31
0.0
  0
ENDSEC
  0
SECTION
  2
OBJECTS
  0
DICTIONARY
  5
C
330
0
100
AcDbDictionary
281
     1
  3
ACAD_GROUP
350
D
  3
ACAD_LAYOUT
350
1A
  3
ACAD_MLINESTYLE
350
17
  3
ACAD_PLOTSETTINGS
350
19
  3
ACAD_PLOTSTYLENAME
350
E
  3
ACAD_SCALELIST
350
47
  0
DICTIONARY
  5
D
102
{ACAD_REACTORS
330
C
102
}
330
C
100
AcDbDictionary
281
     1
  0
DICTIONARY
  5
1A
102
{ACAD_REACTORS
330
C
102
}
330
C
100
AcDbDictionary
281
     1
  3
Layout1
350
1E
  3
Layout2
350
26
  3
Model
350
22
  0
DICTIONARY
  5
17
102
{ACAD_REACTORS
330
C
102
}
330
C
100
AcDbDictionary
281
     1
  3
Standard
350
18
  0
DICTIONARY
  5
19
102
{ACAD_REACTORS
330
C
102
}
330
C
100
AcDbDictionary
281
     1
  0
ACDBDICTIONARYWDFLT
  5
E
102
{ACAD_REACTORS
330
C
102
}
330
C
100
AcDbDictionary
281
     1
  3
Normal
350
F
100
AcDbDictionaryWithDefault
340
F
  0
DICTIONARY
  5
47
102
{ACAD_REACTORS
330
C
102
}
330
C
100
AcDbDictionary
281
     1
  3
A0
350
48
  3
A1
350
49
  3
A2
350
4A
  3
A3
350
4B
  3
A4
350
4C
  3
A5
350
4D
  3
A6
350
4E
  3
A7
350
4F
  3
A8
350
50
  3
A9
350
51
  3
B0
350
52
  3
B1
350
53
  3
B2
350
54
  3
B3
350
55
  3
B4
350
56
  3
B5
350
57
  3
B6
350
58
  3
B7
350
59
  3
B8
350
5A
  3
B9
350
5B
  3
C0
350
5C
  3
C1
350
5D
  3
C2
350
5E
  3
C3
350
5F
  3
C4
350
60
  3
C5
350
61
  3
C6
350
62
  3
C7
350
63
  3
C8
350
64
  3
C9
350
65
  3
D0
350
66
  3
D1
350
67
  3
D2
350
68
  0
LAYOUT
  5
1E
102
{ACAD_REACTORS
330
1A
102
}
330
1A
100
AcDbPlotSettings
  1

  2
none_device
  4

  6

 40
0.0
 41
0.0
 42
0.0
 43
0.0
 44
0.0
 45
0.0
 46
0.0
 47
0.0
 48
0.0
 49
0.0
140
0.0
141
0.0
142
1.0
143
1.0
 70
   688
 72
     1
 73
     0
 74
     5
  7

 75
    16
147
1.0
148
0.0
149
0.0
100
AcDbLayout
  1
Layout1
 70
     1
 71
     1
 10
0.0
 20
0.0
 11
420.0
 21
297.0
 12
0.0
 22
0.0
 32
0.0
 14
1.0000000000E+20
 24
1.0000000000E+20
 34
1.0000000000E+20
 15
-1.0000000000E+20
 25
-1.0000000000E+20
 35
-1.0000000000E+20
146
0.0
 13
0.0
 23
0.0
 33
0.0
 16
1.0
 26
0.0
 36
0.0
 17
0.0
 27
1.0
 37
0.0
 76
     0
330
1B
  0
LAYOUT
  5
26
102
{ACAD_REACTORS
330
1A
102
}
330
1A
100
AcDbPlotSettings
  1

  2
none_device
  4

  6

 40
0.0
 41
0.0
 42
0.0
 43
0.0
 44
0.0
 45
0.0
 46
0.0
 47
0.0
 48
0.0
 49
0.0
140
0.0
141
0.0
142
1.0
143
1.0
 70
   688
 72
     1
 73
     0
 74
     5
  7

 75
    16
147
1.0
148
0.0
149
0.0
100
AcDbLayout
  1
Layout2
 70
     1
 71
     2
 10
0.0
 20
0.0
 11
0.0
 21
0.0
 12
0.0
 22
0.0
 32
0.0
 14
0.0
 24
0.0
 34
0.0
 15
0.0
 25
0.0
 35
0.0
146
0.0
 13
0.0
 23
0.0
 33
0.0
 16
1.0
 26
0.0
 36
0.0
 17
0.0
 27
1.0
 37
0.0
 76
     0
330
23
  0
LAYOUT
  5
22
102
{ACAD_REACTORS
330
1A
102
}
330
1A
100
AcDbPlotSettings
  1

  2
none_device
  4
ANSI_A_(11.00_x_8.50_Inches)
  6

 40
6.35
 41
19.05
 42
6.35000508
 43
19.05000254
 44
279.4
 45
215.9
 46
-4.95300254
 47
9.1098064223
 48
0.0
 49
0.0
140
0.0
141
0.0
142
0.0418846154
143
1.0
 70
  1696
 72
     0
 73
     0
 74
     0
  7

 75
     0
147
0.0179189148
148
-1300.4909072572
149
0.0
100
AcDbLayout
  1
Model
 70
     1
 71
     0
 10
0.0
 20
0.0
 11
420.0
 21
297.0
 12
0.0
 22
0.0
 32
0.0
 14
0.0
 24
0.0
 34
0.0
 15
260.0
 25
150.0
 35
0.0
146
0.0
 13
0.0
 23
0.0
 33
0.0
 16
1.0
 26
0.0
 36
0.0
 17
0.0
 27
1.0
 37
0.0
 76
     0
330
1F
331
29
  0
MLINESTYLE
  5
18
102
{ACAD_REACTORS
330
17
102
}
330
17
100
AcDbMlineStyle
  2
Standard
 70
     0
  3

 62
   256
 51
90.0
 52
90.0
 71
     2
 49
0.5
 62
   256
  6
BYLAYER
 49
-0.5
 62
   256
  6
BYLAYER
  0
ACDBPLACEHOLDER
  5
F
102
{ACAD_REACTORS
330
E
102
}
330
E
  0
SCALE
  5
48
102
{ACAD_REACTORS
330
47
102
}
330
47
100
AcDbScale
 70
     0
300
1:1
140
1.0
141
1.0
290
     1
  0
SCALE
  5
49
102
{ACAD_REACTORS
330
47
102
}
330
47
100
AcDbScale
 70
     0
300
1:2
140
1.0
141
2.0
290
     0
  0
SCALE
  5
4A
102
{ACAD_REACTORS
330
47
102
}
330
47
100
AcDbScale
 70
     0
300
1:4
140
1.0
141
4.0
290
     0
  0
SCALE
  5
4B
102
{ACAD_REACTORS
330
47
102
}
330
47
100
AcDbScale
 70
     0
300
1:5
140
1.0
141
5.0
290
     0
  0
SCALE
  5
4C
102
{ACAD_REACTORS
330
47
102
}
330
47
100
AcDbScale
 70
     0
300
1:8
140
1.0
141
8.0
290
     0
  0
SCALE
  5
4D
102
{ACAD_REACTORS
330
47
102
}
330
47
100
AcDbScale
 70
     0
300
1:10
140
1.0
141
10.0
290
     0
  0
SCALE
  5
4E
102
{ACAD_REACTORS
330
47
102
}
330
47
100
AcDbScale
 70
     0
300
1:16
140
1.0
141
16.0
290
     0
  0
SCALE
  5
4F
102
{ACAD_REACTORS
330
47
102
}
330
47
100
AcDbScale
 70
     0
300
1:20
140
1.0
141
20.0
290
     0
  0
SCALE
  5
50
102
{ACAD_REACTORS
330
47
102
}
330
47
100
AcDbScale
 70
     0
300
1:30
140
1.0
141
30.0
290
     0
  0
SCALE
  5
51
102
{ACAD_REACTORS
330
47
102
}
330
47
100
AcDbScale
 70
     0
300
1:40
140
1.0
141
40.0
290
     0
  0
SCALE
  5
52
102
{ACAD_REACTORS
330
47
102
}
330
47
100
AcDbScale
 70
     0
300
1:50
140
1.0
141
50.0
290
     0
  0
SCALE
  5
53
102
{ACAD_REACTORS
330
47
102
}
330
47
100
AcDbScale
 70
     0
300
1:100
140
1.0
141
100.0
290
     0
  0
SCALE
  5
54
102
{ACAD_REACTORS
330
47
102
}
330
47
100
AcDbScale
 70
     0
300
2:1
140
2.0
141
1.0
290
     0
  0
SCALE
  5
55
102
{ACAD_REACTORS
330
47
102
}
330
47
100
AcDbScale
 70
     0
300
4:1
140
4.0
141
1.0
290
     0
  0
SCALE
  5
56
102
{ACAD_REACTORS
330
47
102
}
330
47
100
AcDbScale
 70
     0
300
8:1
140
8.0
141
1.0
290
     0
  0
SCALE
  5
57
102
{ACAD_REACTORS
330
47
102
}
330
47
100
AcDbScale
 70
     0
300
10:1
140
10.0
141
1.0
290
     0
  0
SCALE
  5
58
102
{ACAD_REACTORS
330
47
102
}
330
47
100
AcDbScale
 70
     0
300
100:1
140
100.0
141
1.0
290
     0
  0
SCALE
  5
59
102
{ACAD_REACTORS
330
47
102
}
330
47
100
AcDbScale
 70
     0
300
1/128" = 1'-0"
140
0.0078125
141
12.0
290
     0
  0
SCALE
  5
5A
102
{ACAD_REACTORS
330
47
102
}
330
47
100
AcDbScale
 70
     0
300
1/64" = 1'-0"
140
0.015625
141
12.0
290
     0
  0
SCALE
  5
5B
102
{ACAD_REACTORS
330
47
102
}
330
47
100
AcDbScale
 70
     0
300
1/32" = 1'-0"
140
0.03125
141
12.0
290
     0
  0
SCALE
  5
5C
102
{ACAD_REACTORS
330
47
102
}
330
47
100
AcDbScale
 70
     0
300
1/16" = 1'-0"
140
0.0625
141
12.0
290
     0
  0
SCALE
  5
5D
102
{ACAD_REACTORS
330
47
102
}
330
47
100
AcDbScale
 70
     0
300
3/32" = 1'-0"
140
0.09375
141
12.0
290
     0
  0
SCALE
  5
5E
102
{ACAD_REACTORS
330
47
102
}
330
47
100
AcDbScale
 70
     0
300
1/8" = 1'-0"
140
0.125
141
12.0
290
     0
  0
SCALE
  5
5F
102
{ACAD_REACTORS
330
47
102
}
330
47
100
AcDbScale
 70
     0
300
3/16" = 1'-0"
140
0.1875
141
12.0
290
     0
  0
SCALE
  5
60
102
{ACAD_REACTORS
330
47
102
}
330
47
100
AcDbScale
 70
     0
300
1/4" = 1'-0"
140
0.25
141
12.0
290
     0
  0
SCALE
  5
61
102
{ACAD_REACTORS
330
47
102
}
330
47
100
AcDbScale
 70
     0
300
3/8" = 1'-0"
140
0.375
141
12.0
290
     0
  0
SCALE
  5
62
102
{ACAD_REACTORS
330
47
102
}
330
47
100
AcDbScale
 70
     0
300
1/2" = 1'-0"
140
0.5
141
12.0
290
     0
  0
SCALE
  5
63
102
{ACAD_REACTORS
330
47
102
}
330
47
100
AcDbScale
 70
     0
300
3/4" = 1'-0"
140
0.75
141
12.0
290
     0
  0
SCALE
  5
64
102
{ACAD_REACTORS
330
47
102
}
330
47
100
AcDbScale
 70
     0
300
1" = 1'-0"
140
1.0
141
12.0
290
     0
  0
SCALE
  5
65
102
{ACAD_REACTORS
330
47
102
}
330
47
100
AcDbScale
 70
     0
300
1-1/2" = 1'-0"
140
1.5
141
12.0
290
     0
  0
SCALE
  5
66
102
{ACAD_REACTORS
330
47
102
}
330
47
100
AcDbScale
 70
     0
300
3" = 1'-0"
140
3.0
141
12.0
290
     0
  0
SCALE
  5
67
102
{ACAD_REACTORS
330
47
102
}
330
47
100
AcDbScale
 70
     0
300
6" = 1'-0"
140
6.0
141
12.0
290
     0
  0
SCALE
  5
68
102
{ACAD_REACTORS
330
47
102
}
330
47
100
AcDbScale
 70
     0
300
1'-0" = 1'-0"
140
12.0
141
12.0
290
     0
  0
ENDSEC
  0
EOF
